<?xml version="1.0" encoding="iso-8859-1"?>
<!-- Generator: Adobe Illustrator 16.0.0, SVG Export Plug-In . SVG Version: 6.00 Build 0)  -->
<!DOCTYPE svg PUBLIC "-//W3C//DTD SVG 1.1//EN" "http://www.w3.org/Graphics/SVG/1.1/DTD/svg11.dtd">
<svg version="1.1" id="Layer_1" xmlns="http://www.w3.org/2000/svg" xmlns:xlink="http://www.w3.org/1999/xlink" x="0px" y="0px"
	 width="181.299px" height="211.596px" viewBox="0 0 181.299 211.596" style="enable-background:new 0 0 181.299 211.596;"
	 xml:space="preserve">
<path style="fill:#33348E;" d="M179.561,41.127l-1.696-13.205l-13.054,2.618c-15.627,3.135-29.292-0.21-38.003-3.57
	c-10.083-3.888-18.791-9.689-27.405-18.261L90.65,0l-8.753,8.71c-8.615,8.571-17.323,14.374-27.406,18.262
	c-8.711,3.358-22.376,6.704-38.003,3.569L3.435,27.923L1.738,41.128c-4.863,37.854,0.489,71.866,15.906,101.093
	c14.339,27.182,36.882,49.406,67.002,66.056l6.004,3.319l6.004-3.319c30.12-16.65,52.662-38.875,67.001-66.056
	C179.072,112.994,184.424,78.981,179.561,41.127z"/>
<path style="fill:#FFFFFF;" d="M173.406,41.918l-0.848-6.603l-6.527,1.31c-17.089,3.427-31.975-0.209-41.456-3.864
	c-10.914-4.208-20.304-10.453-29.548-19.652L90.65,8.753l-4.376,4.355c-9.247,9.199-18.636,15.444-29.551,19.652
	c-9.479,3.655-24.365,7.292-41.455,3.864l-6.527-1.308l-0.848,6.602c-4.697,36.56,0.431,69.333,15.24,97.407
	c13.765,26.094,35.471,47.465,64.515,63.521l3.002,1.659l3.002-1.659c29.043-16.055,50.749-37.427,64.514-63.521
	C172.976,111.251,178.104,78.479,173.406,41.918z"/>
<path style="fill:#00ACEC;" d="M89.191,16.041c-9.667,9.619-19.512,16.158-30.98,20.58c-14.328,5.524-29.458,6.928-43.757,4.06
	l-2.175-0.436l-0.283,2.201c-4.586,35.698,0.392,67.645,14.796,94.95c13.383,25.37,34.531,46.172,62.858,61.83l1,0.554l1-0.554
	c28.326-15.658,49.474-36.46,62.857-61.83c14.404-27.306,19.381-59.252,14.796-94.95l-0.283-2.201l-2.175,0.436
	c-14.298,2.868-29.43,1.464-43.757-4.06c-11.469-4.422-21.312-10.961-30.979-20.58L90.65,14.59L89.191,16.041z"/>
<path style="fill:#FFFFFF;" d="M129.223,82.624v82.856c8.656-9.113,15.884-19.131,21.625-30.015c1.467-2.782,2.824-5.62,4.089-8.501
	V69.521L129.223,82.624z"/>
<path style="fill:#FFFFFF;" d="M129.223,43.021v0.044l0.057-0.029C129.261,43.03,129.242,43.026,129.223,43.021z"/>
<path style="fill:#FFFFFF;" d="M77.792,187.109c4.1,2.77,8.384,5.414,12.859,7.923c4.475-2.509,8.758-5.152,12.858-7.923V95.726
	l-25.717,13.103V187.109z"/>
<path style="fill:#FFFFFF;" d="M103.508,30.946c-4.407-3.034-8.657-6.539-12.858-10.583c-4.202,4.044-8.452,7.549-12.859,10.583
	V69.27l25.717-13.103V30.946z"/>
<path style="fill:#FFFFFF;" d="M52.077,43.021c-8.493,2.413-17.161,3.477-25.715,3.172v49.282l25.715-13.103V43.021z"/>
<path style="fill:#FFFFFF;" d="M30.451,135.466c5.742,10.883,12.97,20.902,21.625,30.015v-43.548l-22.651,11.542
	C29.761,134.141,30.103,134.805,30.451,135.466z"/>
<path style="fill:#FFFFFF;" d="M135.439,44.535c5.584,1.151,11.233,1.747,16.806,1.738c4.422-0.007,8.844-0.407,13.187-1.149
	c0.547,4.645,0.94,9.275,1.155,13.825c-2.343,1.194-135.204,68.891-138.928,70.788c-3.803-8.149-6.818-16.775-8.968-25.716
	C21.555,102.562,134.215,45.159,135.439,44.535z"/>
<g>
	<path style="fill:#00ACEC;" d="M61.15,102.873c-0.277,1.806-0.696,3.137-1.246,3.957c-0.547,0.82-1.307,1.469-2.32,1.987
		c-1.16,0.59-2.34,0.844-3.509,0.754c-1.177-0.088-2.221-0.519-3.193-1.317c-0.99-0.81-1.866-1.955-2.606-3.407
		c-0.902-1.771-1.415-3.39-1.524-4.812c-0.106-1.377,0.119-2.541,0.667-3.46c0.562-0.942,1.335-1.655,2.364-2.178
		c0.799-0.408,1.603-0.63,2.392-0.664c0.982-0.042,2.153,0.226,3.211,0.734c0.743,0.355,1.389,0.828,1.977,1.445l0.296,0.309
		l1.351-0.688l-4.121-5.976l-0.458,0.262l-0.724,0.414l0.103,0.419c0.016,0.066,0.024,0.141,0.024,0.217
		c0,0.272-0.1,0.573-0.28,0.665c-0.002,0-0.14,0.047-0.619,0.042c-1.579,0.01-3.03,0.349-4.325,1.008
		c-1.647,0.839-2.98,2.039-3.961,3.564c-0.979,1.535-1.495,3.27-1.535,5.157c-0.035,1.881,0.401,3.724,1.295,5.479
		c1.115,2.188,2.709,3.81,4.74,4.82c2.744,1.372,5.631,1.306,8.581-0.198c1.637-0.833,2.886-1.943,3.713-3.301
		c0.82-1.352,1.277-3.059,1.36-5.075l0.021-0.542l-1.592-0.153L61.15,102.873z"/>
	<path style="fill:#00ACEC;" d="M103.112,86.217c-0.392,0.17-0.767,0.157-1.542-0.049c-0.275-0.073-0.924-0.355-2.178-1.419
		L86.103,73.481l-0.34,0.174l-0.771,0.392l1.161,17.256c0.125,1.735-0.006,2.536-0.138,2.902c-0.231,0.644-0.371,0.871-0.676,1.106
		l-0.378,0.291l0.585,1.146l6.075-3.098l-0.584-1.143l-0.452,0.127c-1.019,0.286-1.649,0.258-1.82-0.078
		c-0.074-0.145-0.206-0.526-0.262-1.458c0,0-0.15-2.275-0.189-2.864c0.573-0.292,5.266-2.683,5.843-2.977
		c0.442,0.373,1.96,1.656,1.96,1.656c0.844,0.713,1.138,1.096,1.238,1.292c0.029,0.057,0.042,0.121,0.042,0.189
		c0,0.389-0.422,0.93-0.78,1.137l-0.472,0.272l0.625,1.224l7.462-3.804l-0.624-1.222L103.112,86.217z M87.755,79.793
		c1.265,1.069,3.769,3.188,4.634,3.919c-0.978,0.498-3.255,1.659-4.241,2.161C88.075,84.732,87.862,81.447,87.755,79.793z"/>
	<path style="fill:#00ACEC;" d="M132.543,71.277l-0.492,0.206c-0.744,0.312-0.943,0.396-1.659,0.112
		c-0.013-0.005-0.338-0.15-1.023-1.494c0,0-5.816-11.416-6.296-12.359c0.629-0.321,1.862-0.949,1.862-0.949
		c0.605-0.308,1.14-0.46,1.586-0.451c0.764,0.018,1.503,0.469,2.029,1.238l0.284,0.417l1.511-0.769l-2.972-4.289l-0.447,0.228
		l-13.54,6.896l1.59,4.726l1.537-0.783l-0.204-0.49c-0.096-0.231-0.142-0.5-0.142-0.776c0-0.583,0.202-1.203,0.557-1.583
		c0.151-0.157,0.529-0.449,1.427-0.907c0,0,0.943-0.481,1.515-0.772c0.48,0.944,6.297,12.36,6.297,12.36
		c0.544,1.068,0.592,1.477,0.592,1.586c0,0.015-0.001,0.024-0.002,0.028c-0.109,0.822-0.329,0.975-1.075,1.38l-0.492,0.267
		l0.635,1.242l7.541-3.849L132.543,71.277z"/>
</g>
</svg>