<?xml version="1.0" encoding="utf-8"?>
<!-- Generator: Adobe Illustrator 16.0.0, SVG Export Plug-In . SVG Version: 6.00 Build 0)  -->
<!DOCTYPE svg PUBLIC "-//W3C//DTD SVG 1.1//EN" "http://www.w3.org/Graphics/SVG/1.1/DTD/svg11.dtd">
<svg version="1.1" id="Layer_1" xmlns="http://www.w3.org/2000/svg" xmlns:xlink="http://www.w3.org/1999/xlink" x="0px" y="0px"
	 width="435px" height="435px" viewBox="0 0 435 435" enable-background="new 0 0 435 435" xml:space="preserve">
<g>
	<path fill-rule="evenodd" clip-rule="evenodd" fill="#343738" d="M6.146,206.351v28.716c0,25.669,12.599,60.91,21.504,78.749
		c11.513,22.624,25.197,40.68,42.357,57.648c29.542,29.585,82.761,59.605,141.627,59.605h16.074
		c56.26,0,110.782-32.848,139.02-61.346c28.674-28.498,62.126-82.665,62.126-139.228v-24.146c0-25.888-12.165-61.346-21.071-79.185
		c-11.947-23.712-24.328-40.246-42.141-58.083C336.754,40.15,282.882,8.171,225.538,8.171h-13.252
		c-60.82,0-110.346,30.021-141.844,59.824c-15.856,15.228-33.451,37.199-43.008,58.083C18.311,145.657,6.146,178.07,6.146,206.351
		L6.146,206.351z"/>
	<path fill-rule="evenodd" clip-rule="evenodd" fill="#F0F1F3" d="M12.012,210.919v17.404c0,56.995,32.147,108.552,61.038,137.485
		c28.89,28.933,80.805,59.389,138.585,59.389h11.73c105.134,0,199.623-94.631,199.623-199.703V214.4
		c0-108.335-95.575-200.356-205.488-200.356c-28.89,0-63.645,8.049-82.542,17.621c-12.6,6.309-21.071,10.443-32.583,18.056
		c-5.43,3.481-9.123,6.744-14.119,10.659c-4.778,3.698-9.34,8.702-13.685,11.965c-11.946,8.92-35.84,42.639-42.14,57.866
		C22.873,152.618,12.012,179.376,12.012,210.919L12.012,210.919z"/>
	<path fill-rule="evenodd" clip-rule="evenodd" fill="#393E41" d="M14.184,219.621c0,109.205,90.58,202.531,198.972,202.531h13.901
		c53.654,0,106.656-31.762,133.808-58.954c27.369-27.41,59.083-80.056,59.083-134.005v-16.098
		c0-57.648-30.41-107.683-59.301-136.616c-28.672-28.716-80.37-59.389-137.281-59.389h-5.213
		C106.067,17.09,14.184,108.022,14.184,219.621L14.184,219.621z"/>
	<path fill-rule="evenodd" clip-rule="evenodd" fill="#FDFEFF" d="M17.225,215.923v8.919c0,105.508,92.752,195.134,199.624,195.134
		h2.825c107.74,0,198.103-91.366,198.103-199.702v-1.305c0-58.954-27.368-108.989-56.911-138.574
		c-28.456-28.498-78.199-60.476-134.677-60.476h-17.376c-56.042,0-105.786,31.543-134.024,59.823
		C45.897,108.675,17.225,158.274,17.225,215.923L17.225,215.923z"/>
	<path fill-rule="evenodd" clip-rule="evenodd" fill="#0099D9" d="M58.931,215.27v4.351c0,87.67,71.03,158.805,158.569,158.805
		c89.059,0,158.569-71.788,158.569-161.632c0-48.947-22.155-80.491-44.747-107.466c-17.377-20.884-65.817-47.641-104.266-47.641
		h-15.421C131.264,61.687,58.931,134.78,58.931,215.27L58.931,215.27z"/>
	<path fill-rule="evenodd" clip-rule="evenodd" fill="#FDFEFF" d="M219.673,359.283h11.078c29.976,0,67.119-22.19,82.76-37.854
		c17.159-17.402,39.533-46.989,42.575-78.967l-32.149-22.624l32.149-23.059l-0.435-0.653c-2.39-28.934-27.152-66.133-44.748-80.926
		c-21.938-18.273-51.264-35.241-91.23-35.241V359.283z"/>
	<path fill-rule="evenodd" clip-rule="evenodd" fill="#FDFEFF" d="M104.112,215.923v8.049c0,29.368,19.767,67.003,36.927,78.532
		l14.988-16.968c-11.512-7.832-26.066-35.46-27.804-54.168h62.125c1.737,0,2.389,0.435,2.389,2.176v92.02h22.591V106.935h-5.865
		c-29.324,0-57.997,18.926-72.985,33.937C121.055,156.316,104.112,185.25,104.112,215.923L104.112,215.923z"/>
	<path fill-rule="evenodd" clip-rule="evenodd" fill="#FDFEFF" d="M77.177,220.273v2.175c0,40.246,19.333,72.66,38.448,93.979
		c16.291,17.838,56.694,42.856,90.146,42.856h9.557v-22.626h-3.042c-32.365,0-62.124-18.924-78.633-35.241
		c-17.377-17.186-33.017-46.554-33.017-81.143V214.4c0-58.954,55.608-111.816,115.343-111.816V79.96h-4.996
		c-39.968,0-73.854,22.407-94.273,42.638C95.641,143.699,77.177,178.07,77.177,220.273L77.177,220.273z"/>
	<path fill-rule="evenodd" clip-rule="evenodd" fill="#0099D9" d="M242.263,233.544v100.067c6.951,0,26.066-8.048,30.847-10.876
		c10.208-6.092,15.204-10.878,23.893-17.621c7.169-5.656,13.901-15.01,19.115-22.842c2.607-3.916,13.251-24.147,13.251-28.933
		c0-2.175-28.239-21.972-32.149-21.972h-52.566C242.914,231.368,242.263,231.803,242.263,233.544L242.263,233.544z"/>
	<path fill-rule="evenodd" clip-rule="evenodd" fill="#0099D9" d="M242.263,207.874h57.129c1.521,0,29.977-20.231,29.977-21.101
		c0-6.309-9.992-23.93-12.816-28.933c-5.648-9.137-11.512-15.446-18.898-22.842c-9.34-9.354-37.795-28.716-55.391-28.716V207.874z"
		/>
	<path fill-rule="evenodd" clip-rule="evenodd" fill="#0099D9" d="M128.223,207.874h64.514c-0.652-0.87-0.868-0.653-0.868-2.175
		v-71.57c-13.25,0.217-34.755,18.49-42.141,26.321C141.691,168.934,128.658,192.429,128.223,207.874L128.223,207.874z"/>
	<path fill-rule="evenodd" clip-rule="evenodd" fill="#FDFEFF" d="M240.091,44.065v3.698c0,3.698,3.042,6.526,6.733,6.526h1.304
		c5.647,0,8.036-6.526,8.036-12.4c0-4.351-3.476-8.049-8.036-8.049C242.914,33.841,240.091,38.844,240.091,44.065L240.091,44.065z"
		/>
	<path fill="#24211D" d="M48.938,271.396l-0.434-8.702c2.389-0.218,4.562,0,6.516,0.652c1.738,0.652,3.259,1.74,4.779,3.046
		c1.303,1.522,2.39,3.48,3.258,6.091c1.086,3.046,1.521,5.873,1.304,8.05c-0.218,2.392-1.304,4.566-3.042,6.743
		c-1.955,2.394-4.562,4.133-8.037,5.221c-4.778,1.74-8.906,1.74-12.381,0c-3.476-1.522-6.083-4.785-7.603-9.354
		c-1.304-3.697-1.52-6.743-0.652-9.354c0.652-2.611,2.39-5.004,4.996-6.962l4.562,7.18c-0.869,0.651-1.303,1.087-1.738,1.522
		c-0.434,0.87-0.651,1.522-0.869,2.394c0,0.87,0,1.74,0.217,2.61c0.869,2.176,2.172,3.262,4.127,3.915
		c1.521,0.435,3.475,0,6.083-0.87c3.258-1.088,5.213-2.176,6.082-3.698c0.869-1.306,1.086-2.828,0.435-4.569
		c-0.651-1.74-1.521-2.827-2.824-3.479C52.414,271.396,50.894,271.178,48.938,271.396L48.938,271.396z M27.434,260.736l-1.738-9.354
		l22.591-4.351l-2.823-14.357l7.385-1.523l4.562,23.712L27.434,260.736z M23.307,207.657l0.217-9.572l18.029,0.435
		c1.955,0,3.476,0.217,5.213,0.87c1.52,0.653,2.823,1.523,4.127,2.828c1.086,1.088,1.955,2.393,2.389,3.698
		c0.652,1.958,1.086,4.133,0.869,6.744c0,1.305,0,3.045-0.217,4.787c-0.434,1.739-0.869,3.263-1.521,4.35
		c-0.434,1.088-1.521,2.176-2.607,3.265c-1.086,0.87-2.39,1.522-3.475,1.957c-1.955,0.436-3.693,0.653-5.214,0.653l-18.246-0.218
		l0.217-9.354l18.68,0.217c1.521,0,2.824-0.435,3.91-1.305c0.869-0.871,1.303-2.176,1.521-3.916c0-1.523-0.435-2.829-1.521-3.698
		c-0.869-1.088-2.172-1.523-3.693-1.523L23.307,207.657z M25.262,185.685l4.127-17.186c0.652-2.828,1.738-4.786,3.476-6.091
		c1.954-1.087,3.692-1.523,5.865-1.087c1.737,0.435,3.257,1.305,4.126,2.827c0.652,0.871,1.086,1.958,1.303,3.481
		c1.086-1.958,2.173-3.263,3.693-3.916c1.521-0.871,3.258-0.871,4.996-0.435c1.738,0.217,2.824,0.87,3.91,1.958
		c1.086,1.088,1.955,2.176,2.389,3.698c0.217,0.871,0.217,1.958,0,3.698c0,2.176-0.217,3.481-0.435,4.134l-3.693,15.88
		L25.262,185.685z M39.164,179.159l0.869-3.917c0.434-1.522,0.434-2.611,0-3.263c-0.435-0.653-1.086-1.087-1.955-1.305
		c-0.869-0.218-1.521,0-2.172,0.435c-0.651,0.435-1.086,1.306-1.521,2.829l-0.869,3.916L39.164,179.159z M50.894,181.986
		l1.086-4.786c0.217-1.523,0.217-2.828-0.217-3.48c-0.435-0.87-1.086-1.305-1.956-1.523c-0.869-0.217-1.738,0-2.39,0.435
		c-0.651,0.436-1.085,1.523-1.52,3.264l-1.086,4.568L50.894,181.986z M75.005,128.689l-5.431,9.137l3.693,3.915l-4.779,8.267
		l-20.636-25.235l4.996-8.919l32.148,5.438l-4.778,8.484L75.005,128.689z M68.271,126.948l-11.078-2.393l7.82,8.267L68.271,126.948z
		 M61.537,104.107l18.247-21.972l5.865,5.003l-6.299,7.179l17.595,14.793l-5.865,7.179l-17.595-14.575l-6.299,7.179L61.537,104.107z
		 M87.603,75.391l7.168-5.873l14.554,17.839l11.513-9.355l4.562,5.874l-18.68,15.228L87.603,75.391z M114.321,54.943l21.94-12.183
		l3.258,5.656l-13.902,7.614l2.39,4.35l12.815-7.178l3.041,5.438l-12.816,7.179l2.825,5.221l14.336-7.832l3.258,5.875L129.092,81.7
		L114.321,54.943z M145.383,38.409l27.37-8.483l2.172,7.178l-9.123,2.829l6.517,21.972l-8.906,2.828l-6.734-21.972l-9.123,2.828
		L145.383,38.409z M181.876,28.62l9.558-1.305l4.127,30.238l-9.341,1.306L181.876,28.62z M222.93,44.283l8.255,2.61
		c-0.651,2.393-1.52,4.133-2.607,5.656c-1.302,1.74-2.822,2.828-4.561,3.481c-1.737,0.87-4.127,1.087-6.734,1.087
		c-3.476,0-6.082-0.652-8.254-1.522c-1.955-1.088-3.692-2.828-5.214-5.221c-1.52-2.394-2.172-5.656-2.172-9.354
		c0-5.003,1.521-8.919,4.127-11.53c2.824-2.61,6.733-3.916,11.512-3.916c3.91,0,6.951,0.87,9.124,2.393
		c2.171,1.74,3.693,4.133,4.778,7.396l-8.472,1.74c-0.217-1.087-0.434-1.74-0.868-2.175c-0.434-0.652-1.086-1.305-1.955-1.74
		c-0.652-0.435-1.521-0.435-2.39-0.653c-2.172,0-3.91,0.87-4.996,2.611c-0.869,1.305-1.303,3.263-1.521,5.874
		c0,3.48,0.434,5.874,1.521,7.179c1.086,1.087,2.39,1.741,4.344,1.958c1.738,0,3.042-0.435,4.127-1.523
		C221.845,47.546,222.496,46.241,222.93,44.283L222.93,44.283z M237.484,41.02c1.086-5.003,3.259-8.484,6.517-10.66
		c3.259-2.175,7.386-2.61,12.163-1.522c4.996,1.088,8.69,3.045,10.645,6.309c2.173,3.263,2.824,7.396,1.738,12.182
		c-0.87,3.481-1.955,6.091-3.692,8.049c-1.521,2.176-3.694,3.481-6.083,4.133c-2.607,0.87-5.431,0.87-8.688,0.218
		c-3.476-0.653-6.082-1.958-8.038-3.48c-1.954-1.523-3.475-3.48-4.344-6.091C236.832,47.546,236.832,44.5,237.484,41.02
		L237.484,41.02z M246.824,42.979c-0.651,3.045-0.651,5.22,0.218,6.743c0.868,1.523,2.172,2.61,4.127,3.046
		c1.955,0.435,3.693,0,4.995-0.87c1.521-1.088,2.391-3.264,3.259-6.744c0.436-2.828,0.436-5.003-0.434-6.526
		s-2.39-2.393-4.346-2.828c-1.737-0.435-3.475,0-4.778,0.871C248.345,37.757,247.477,39.933,246.824,42.979L246.824,42.979z
		 M298.522,42.543l15.423,8.702c2.606,1.305,4.127,3.045,4.779,5.221c0.651,1.958,0.434,3.916-0.436,5.874
		c-0.869,1.522-2.172,2.611-3.91,3.263c-1.086,0.218-2.172,0.436-3.693,0.218c1.521,1.523,2.607,3.045,2.825,4.568
		c0.217,1.74,0,3.263-1.087,5.003c-0.65,1.305-1.738,2.393-2.823,3.263c-1.303,0.653-2.823,1.088-4.127,1.088
		c-0.869,0-2.172-0.217-3.693-0.87c-1.955-0.653-3.258-1.305-3.91-1.741L283.752,69.3L298.522,42.543z M300.912,57.771l3.692,1.958
		c1.304,0.652,2.173,0.871,3.042,0.871c0.651-0.218,1.302-0.653,1.736-1.523c0.435-0.87,0.653-1.522,0.218-2.175
		c-0.218-0.87-0.869-1.523-2.173-2.176l-3.691-1.957L300.912,57.771z M295.265,68.213l4.127,2.393
		c1.303,0.653,2.606,1.087,3.475,0.871c0.87-0.218,1.521-0.653,1.955-1.523c0.436-0.87,0.436-1.522,0.219-2.393
		c-0.436-0.87-1.304-1.523-2.608-2.393l-4.344-2.393L295.265,68.213z M332.192,62.122l19.331,16.315l-4.127,5.003l-12.164-10.224
		l-3.04,3.698l11.076,9.572l-3.908,4.786L328.064,81.7l-3.693,4.568l12.383,10.659l-4.346,5.221l-19.766-16.533L332.192,62.122z
		 M359.778,87.357l5.647,7.396l-18.029,14.141l9.123,11.529l-6.082,4.786l-14.771-19.143L359.778,87.357z M370.422,135.433
		l5.43-3.264l7.386,12.618l-11.295,6.526c-3.041-1.523-5.431-2.828-6.951-4.351c-1.737-1.522-3.258-3.698-4.778-6.091
		c-1.738-3.264-2.824-6.091-2.824-8.702c0-2.61,0.651-5.003,2.173-7.396c1.521-2.175,3.475-4.133,6.299-5.874
		c2.824-1.523,5.646-2.393,8.472-2.393c2.824,0,5.431,0.653,7.819,2.393c1.956,1.305,3.911,3.48,5.648,6.526
		c1.52,2.828,2.607,5.221,2.823,6.962c0.434,1.74,0.218,3.48-0.216,5.003c-0.652,1.522-1.738,3.045-3.043,4.568l-6.081-6.961
		c0.868-0.87,1.302-1.958,1.521-3.046c0-1.087-0.219-2.175-1.087-3.48c-0.869-1.74-2.389-2.828-4.344-3.046
		c-1.737-0.435-4.127,0.218-6.733,1.741c-2.824,1.522-4.562,3.263-5.214,5.221c-0.651,1.74-0.435,3.48,0.868,5.438
		c0.435,0.87,1.086,1.74,1.738,2.393c0.869,0.652,1.737,1.305,3.041,2.175l2.607-1.522L370.422,135.433z M370.64,158.709
		l29.107-8.919l4.561,15.011c0.869,2.828,1.304,5.004,1.304,6.744c0,1.523-0.435,3.045-1.521,4.351
		c-1.086,1.305-2.39,2.175-4.344,2.828c-1.521,0.436-3.042,0.436-4.563,0.218c-1.303-0.435-2.605-1.087-3.691-1.958
		c-0.651-0.653-1.304-1.74-2.173-2.828c0,1.088,0,1.958-0.217,2.611c-0.217,0.435-0.652,1.087-1.085,1.957
		c-0.653,0.871-1.087,1.523-1.521,1.74l-7.168,6.962l-3.041-10.225l7.385-7.396c1.086-1.088,1.521-1.741,1.738-2.393
		c0.218-0.871,0.218-1.523,0-2.393l-0.217-0.871l-11.73,3.699L370.64,158.709z M390.841,162.408l1.085,3.916
		c0,0.435,0.436,1.088,1.087,2.175c0.217,0.652,0.868,1.087,1.303,1.306c0.652,0.217,1.303,0.217,1.956,0
		c0.869-0.218,1.521-0.871,1.954-1.523c0.218-0.87,0.218-1.958-0.434-3.697l-1.087-3.917L390.841,162.408z M386.063,208.744
		l-0.652-10.659l-4.996-1.305l-0.651-9.573l31.062,9.79l0.652,10.442L381.5,220.492l-0.434-10.008L386.063,208.744z
		 M392.361,206.568l10.86-4.133l-11.077-2.61L392.361,206.568z M412.128,227.234l-1.087,8.92l-18.028,9.138l16.726,2.175
		l-1.086,8.701l-30.411-3.698l1.087-8.701l18.028-9.354l-16.509-1.958l1.087-8.919L412.128,227.234z M391.492,262.694
		c4.779,1.522,7.819,4.133,9.558,7.614c1.737,3.48,1.737,7.614,0.218,12.4c-1.738,4.784-4.127,8.047-7.604,9.788
		c-3.476,1.522-7.602,1.74-12.164,0c-3.476-1.088-6.082-2.611-7.819-4.567c-1.738-1.741-2.825-3.917-3.259-6.527
		c-0.435-2.609-0.217-5.438,0.869-8.701c1.086-3.264,2.606-5.657,4.345-7.614c1.737-1.74,4.127-2.828,6.732-3.479
		C384.976,261.172,388.018,261.389,391.492,262.694L391.492,262.694z M388.45,271.613c-3.04-1.087-5.213-1.305-6.95-0.652
		c-1.521,0.652-2.823,1.958-3.476,3.697c-0.651,1.958-0.435,3.698,0.434,5.222c0.87,1.522,2.825,2.61,6.083,3.915
		c2.823,0.871,4.996,1.088,6.516,0.218c1.739-0.652,2.824-1.74,3.477-3.697c0.65-1.741,0.435-3.481-0.435-5.005
		C393.229,273.789,391.275,272.483,388.45,271.613L388.45,271.613z"/>
	<path fill="#24211D" d="M125.833,375.163l5.648,6.525c-1.738,1.74-3.475,2.829-5.431,3.482c-1.738,0.651-3.693,0.869-5.647,0.434
		c-1.956-0.217-3.911-1.087-6.3-2.61c-2.824-1.74-4.779-3.698-6.082-5.656c-1.086-1.74-1.738-4.35-1.738-7.179
		c0-2.827,1.086-5.874,3.041-9.137c2.824-4.133,6.082-6.744,9.775-7.396c3.693-0.87,7.603,0,11.73,2.61
		c3.258,2.177,5.431,4.351,6.299,6.962c1.086,2.394,1.086,5.221,0.435,8.7l-8.038-3.046c0.217-0.869,0.217-1.739,0.217-2.174
		c0-0.87-0.217-1.74-0.651-2.394c-0.434-0.87-1.086-1.522-1.956-1.958c-1.737-1.088-3.475-1.305-5.43-0.435
		c-1.303,0.653-2.825,1.958-4.344,4.352c-1.738,2.828-2.607,5.002-2.39,6.744c0.217,1.521,1.086,2.827,2.607,3.915
		c1.521,0.87,2.824,1.087,4.127,0.87C123.01,377.338,124.531,376.469,125.833,375.163L125.833,375.163z M139.083,380.384
		c1.521-4.568,4.127-7.832,7.603-9.572c3.476-1.739,7.603-1.959,12.381-0.216c4.779,1.521,8.037,4.133,9.775,7.612
		c1.738,3.48,1.738,7.614,0.217,12.183c-1.086,3.264-2.606,5.873-4.562,7.613c-1.955,1.959-4.127,3.046-6.734,3.482
		c-2.39,0.434-5.431,0.217-8.471-0.871c-3.259-1.089-5.865-2.611-7.603-4.352c-1.738-1.739-3.042-3.915-3.476-6.744
		C137.564,386.911,137.781,383.865,139.083,380.384L139.083,380.384z M147.99,383.429c-1.086,3.045-1.304,5.222-0.652,6.962
		c0.652,1.522,1.956,2.827,3.91,3.48s3.475,0.436,4.996-0.435s2.824-3.046,3.91-6.31c0.869-2.609,1.086-4.785,0.435-6.526
		c-0.652-1.522-1.955-2.61-3.91-3.263c-1.738-0.652-3.476-0.435-4.995,0.436C150.162,378.644,148.859,380.601,147.99,383.429
		L147.99,383.429z M174.273,408.446l4.127-30.238l15.64,2.176c2.824,0.435,4.996,0.87,6.516,1.74
		c1.304,0.653,2.39,1.741,3.258,3.264c0.652,1.305,0.87,3.045,0.652,5.003c-0.217,1.74-0.652,3.046-1.52,4.134
		c-0.87,1.086-2.173,1.957-3.476,2.609c-0.87,0.436-1.956,0.653-3.476,0.87c1.086,0.436,1.954,0.87,2.389,1.306
		c0.217,0.435,0.651,0.87,1.303,1.74c0.435,1.088,0.869,1.741,1.086,2.176l3.259,9.354l-10.644-1.522l-3.692-9.789
		c-0.435-1.305-0.869-2.175-1.304-2.611c-0.651-0.652-1.303-0.869-2.172-1.087h-0.869l-1.738,12.183L174.273,408.446z
		 M186.003,391.913l4.127,0.436c0.435,0,1.086,0,2.389,0c0.652-0.218,1.303-0.436,1.738-0.87c0.434-0.436,0.652-0.87,0.869-1.523
		c0-1.088-0.217-1.958-0.652-2.392c-0.651-0.652-1.738-1.09-3.475-1.306l-4.127-0.653L186.003,391.913z M211.201,382.777
		l13.902-0.871c2.823,0,4.997,0.218,6.734,0.871c1.737,0.651,3.258,1.521,4.563,2.827c1.085,1.522,1.954,3.046,2.605,4.786
		c0.65,1.958,0.869,3.916,1.086,5.873c0.217,3.263,0,5.874-0.652,7.615c-0.652,1.957-1.521,3.479-2.823,4.784
		c-1.304,1.307-2.606,2.176-4.127,2.612c-1.955,0.651-3.911,1.087-5.648,1.087l-13.902,0.869L211.201,382.777z M220.976,389.085
		l0.869,16.751l2.389-0.218c1.954,0,3.476-0.435,4.128-0.87c0.868-0.436,1.521-1.305,1.954-2.393
		c0.436-1.088,0.436-2.829,0.436-5.438c-0.218-3.046-0.869-5.221-1.956-6.526c-1.303-1.088-3.04-1.523-5.43-1.306H220.976z
		 M247.042,395.395c-1.087-5.004-0.435-9.137,1.737-12.4c1.955-3.263,5.431-5.438,10.427-6.525
		c4.996-1.088,8.905-0.436,12.382,1.521c3.258,2.176,5.213,5.657,6.3,10.442c0.867,3.48,0.867,6.309,0.216,8.92
		c-0.65,2.392-2.172,4.567-4.127,6.308c-1.738,1.74-4.562,2.828-7.82,3.698c-3.258,0.653-6.298,0.653-8.688,0.218
		c-2.39-0.653-4.562-1.958-6.517-3.916C249.214,401.486,247.91,398.874,247.042,395.395L247.042,395.395z M256.381,393.437
		c0.652,2.827,1.521,5.003,3.042,6.09c1.304,1.089,3.041,1.307,4.997,0.871c1.954-0.435,3.257-1.305,4.127-2.828
		c0.868-1.522,0.868-3.915,0.217-7.396c-0.652-2.828-1.737-4.785-3.041-5.655c-1.521-1.089-3.041-1.523-4.996-1.089
		c-1.955,0.437-3.259,1.523-4.127,3.045C255.73,387.997,255.73,390.391,256.381,393.437L256.381,393.437z M277.67,371.682
		l15.856-7.831c2.606-1.305,4.996-1.523,7.168-0.871c1.956,0.436,3.477,1.741,4.346,3.699c0.868,1.74,1.085,3.264,0.651,5.003
		c-0.435,1.088-1.087,2.176-2.173,3.264c2.39-0.436,4.128-0.436,5.647,0.218c1.52,0.652,2.607,1.958,3.477,3.698
		c0.65,1.522,1.085,2.827,0.868,4.351c0,1.522-0.435,2.828-1.304,3.915c-0.434,0.87-1.521,1.74-2.824,2.61
		c-1.736,1.089-3.04,1.959-3.475,2.176l-14.771,7.18L277.67,371.682z M291.572,378.208l3.692-1.739
		c1.304-0.653,2.173-1.306,2.389-1.959c0.217-0.87,0.217-1.521-0.216-2.393c-0.436-0.871-0.869-1.306-1.738-1.521
		c-0.652-0.22-1.739,0-3.041,0.65l-3.693,1.742L291.572,378.208z M296.785,389.085l4.344-2.174c1.521-0.653,2.39-1.523,2.823-2.394
		c0.219-0.652,0.219-1.523-0.216-2.394s-1.086-1.306-1.956-1.523c-0.651-0.217-1.955,0-3.475,0.871l-4.128,1.957L296.785,389.085z
		 M336.754,366.462l-8.474,6.526l1.956,5.002l-7.82,5.875l-9.34-31.327l8.254-6.308l27.588,17.402l-7.82,6.092L336.754,366.462z
		 M331.322,362.546l-9.341-6.745l3.91,10.661L331.322,362.546z"/>
	<path fill-rule="evenodd" clip-rule="evenodd" fill="#24211D" d="M63.275,329.696v0.219c0,7.396,6.082,13.27,13.25,13.27
		c7.603,0,13.467-5.874,13.467-13.488c0-4.133-1.955-6.743-3.91-8.919c-1.303-1.741-5.43-4.134-8.689-4.134h-1.303
		C69.357,316.644,63.275,322.953,63.275,329.696L63.275,329.696z"/>
	<path fill-rule="evenodd" clip-rule="evenodd" fill="#24211D" d="M347.831,327.303v0.436c0,7.396,6.083,13.271,13.251,13.271
		c7.603,0,13.467-5.874,13.467-13.487c0-4.133-1.955-6.744-3.909-8.919c-1.303-1.74-5.431-4.133-8.688-4.133h-1.305
		C353.914,314.47,347.831,320.56,347.831,327.303L347.831,327.303z"/>
</g>
</svg>
