<?xml version="1.0" encoding="UTF-8" standalone="no"?>
<!-- Generator: Adobe Illustrator 12.0.0, SVG Export Plug-In  -->

<svg
   xmlns:dc="http://purl.org/dc/elements/1.1/"
   xmlns:cc="http://creativecommons.org/ns#"
   xmlns:rdf="http://www.w3.org/1999/02/22-rdf-syntax-ns#"
   xmlns:svg="http://www.w3.org/2000/svg"
   xmlns="http://www.w3.org/2000/svg"
   xmlns:sodipodi="http://sodipodi.sourceforge.net/DTD/sodipodi-0.dtd"
   xmlns:inkscape="http://www.inkscape.org/namespaces/inkscape"
   version="1.1"
   width="235"
   height="290"
   viewBox="-0.3198242 -0.7246094 235 290"
   enable-background="new -0.3198242 -0.7246094 242 301"
   xml:space="preserve"
   id="svg3019"
   inkscape:version="0.48.1 "
   sodipodi:docname="newells_starslogo.svg"><metadata
   id="metadata3051"><rdf:RDF><cc:Work
       rdf:about=""><dc:format>image/svg+xml</dc:format><dc:type
         rdf:resource="http://purl.org/dc/dcmitype/StillImage" /></cc:Work></rdf:RDF></metadata><sodipodi:namedview
   pagecolor="#ffffff"
   bordercolor="#666666"
   borderopacity="1"
   objecttolerance="10"
   gridtolerance="10"
   guidetolerance="10"
   inkscape:pageopacity="0"
   inkscape:pageshadow="2"
   inkscape:window-width="1366"
   inkscape:window-height="706"
   id="namedview3049"
   showgrid="false"
   inkscape:zoom="1.1803896"
   inkscape:cx="121"
   inkscape:cy="150.5"
   inkscape:window-x="-8"
   inkscape:window-y="-8"
   inkscape:window-maximized="1"
   inkscape:current-layer="svg3019" />
<defs
   id="defs3021">
</defs>












<g
   id="g3053"
   transform="matrix(0.92153073,0,0,0.92153073,6.1325575,4.6191751)"><path
     inkscape:connector-curvature="0"
     id="path3023"
     d="M 177.68994,30.10498 C 153.90527,30.10498 132.9126,18.182617 120.33398,0 107.75391,18.182617 86.762695,30.10498 62.978027,30.10498 43.640137,30.10498 26.144043,22.226562 13.51709,9.5087891 5.7636719,31.266602 1.5385742,54.699707 1.5385742,79.121094 c 0,82.819336 48.5561518,154.292966 118.7504858,187.524416 70.19531,-33.23145 118.75147,-104.70508 118.75147,-187.524416 0,-24.395508 -4.21582,-47.804688 -11.95264,-69.5424807 C 214.46387,22.256836 196.99512,30.10498 177.68994,30.10498 z" /><path
     style="fill:#ffffff"
     inkscape:connector-curvature="0"
     id="path3025"
     d="m 177.68994,39.00293 c -22.63037,0 -43.01221,-9.57666 -57.35596,-24.884278 C 105.99219,29.42627 85.608887,39.00293 62.978027,39.00293 c -16.792968,0 -32.343261,-5.283692 -45.115234,-14.254395 -4.911133,17.281739 -7.560059,35.515625 -7.560059,54.372559 0,77.837406 44.783204,145.206056 109.987796,177.774416 65.20117,-32.56836 109.98779,-99.93701 109.98779,-177.774416 0,-18.838867 -2.64746,-37.054199 -7.54687,-54.319824 -12.75831,8.940429 -28.27979,14.20166 -45.04151,14.20166 z" /><path
     inkscape:connector-curvature="0"
     id="path3027"
     d="m 120.85156,247.16211 c 0,0 10e-4,0 10e-4,9.8e-4 60.25976,-31.84668 101.33252,-95.14356 101.33252,-168.041996 0,-14.026856 -1.53565,-27.69336 -4.42139,-40.852539 -11.86816,6.033691 -25.28564,9.456054 -39.51123,9.456054 -21.95947,0 -42.01123,-8.122558 -57.35596,-21.505371 -0.0151,0.01221 -0.0303,0.02393 -0.0454,0.03613 V 247.16211 z" /><path
     style="fill:#e60000"
     inkscape:connector-curvature="0"
     id="path3029"
     d="m 120.82129,26.255371 c -15.34033,13.360352 -35.370606,21.469238 -57.310548,21.469238 -14.257812,0 -27.703613,-3.438964 -39.591797,-9.49707 -2.890136,13.171875 -4.430175,26.851563 -4.430175,40.893555 0,72.896976 41.072753,136.193356 101.33252,168.041016 V 26.255371 z" /><path
     style="fill:#ffffff"
     inkscape:connector-curvature="0"
     id="path3031"
     d="m 85.197266,72.566895 c 0,0 0,16.553222 0,23.659667 C 83.388672,93.39209 70.099121,72.566895 70.099121,72.566895 H 59.799805 v 40.172365 h 9.492676 c 0,0 0,-16.529299 0,-23.479983 1.272949,1.918457 15.790039,23.829593 15.790039,23.829593 l 9.549804,0.001 V 72.566895 h -9.435058 z" /><path
     style="fill:#ffffff"
     inkscape:connector-curvature="0"
     id="path3033"
     d="m 105.04346,113.44336 c -3.84668,3.72754 -5.795413,8.65234 -5.795413,14.64258 0,5.9082 1.956543,10.82568 5.816403,14.60742 3.85547,3.77246 8.87549,5.68652 14.92578,5.68652 6.01123,0 11.0127,-1.91406 14.86377,-5.68652 3.86036,-3.78174 5.81641,-8.69629 5.81641,-14.60742 0,-5.98877 -1.92773,-10.91358 -5.7334,-14.6377 -3.79638,-3.71826 -8.82715,-5.60547 -14.94678,-5.60547 -6.08349,0 -11.1123,1.88379 -14.94677,5.60059 z m 7.25683,23.04297 0,0 c -2.04101,-2.19336 -3.03174,-4.9419 -3.03174,-8.40235 0,-3.38769 1.00293,-6.12109 3.06202,-8.35058 2.0332,-2.20069 4.53711,-3.26856 7.65966,-3.26856 3.08155,0 5.56885,1.06787 7.59913,3.26856 2.05908,2.22949 3.0625,4.96289 3.0625,8.35058 0,3.38965 -1.00342,6.11963 -3.0625,8.34766 -2.03028,2.20068 -4.51758,3.27197 -7.59913,3.27197 -3.16162,0 -5.67773,-1.05273 -7.68994,-3.21728 z" /><path
     style="fill:#ffffff"
     inkscape:connector-curvature="0"
     id="path3035"
     d="m 144.99951,142.99316 v 40.42871 h 16.72852 c 4.12842,0 7.35058,-0.97753 9.57422,-2.90234 2.28222,-1.97461 3.4375,-4.83691 3.4375,-8.50683 0,-3.31739 -0.97168,-6.01856 -2.88721,-8.0254 -0.75586,-0.78906 -1.64697,-1.37695 -2.60498,-1.8623 0.7876,-0.55371 1.59717,-1.24512 2.4751,-2.24951 1.35791,-1.55811 2.04541,-3.67285 2.04541,-6.28272 0,-3.13134 -0.92432,-5.53271 -2.74073,-7.14648 -1.69824,-1.50537 -3.27783,-2.44092 -4.82959,-2.86182 -1.46337,-0.39795 -3.48486,-0.59131 -6.18603,-0.59131 h -15.01221 z m 13.58789,8.40381 c 1.51026,0 2.66846,0.32276 3.45166,0.95899 0.71924,0.58105 1.05274,1.3789 1.05274,2.50097 0,1.76953 -0.58399,3.57373 -4.90381,3.57373 0,0 -1.68799,0 -2.95801,0 0,-1.67285 0,-5.36084 0,-7.03369 1.36963,0 3.35742,0 3.35742,0 z m -0.009,15.82178 c 1.9336,0 3.38623,0.36816 4.32129,1.09375 0.85401,0.66211 1.25244,1.58301 1.25244,2.8916 0,1.07813 -0.16601,2.44531 -0.95654,2.8291 -1.32129,0.63965 -1.92627,0.79102 -2.16894,0.82227 l -2.44825,0.10449 c 0,0 -1.98193,0 -3.34863,0 0,-1.73535 0,-6.00683 0,-7.74121 1.3667,0 3.34863,0 3.34863,0 z" /><polygon
     id="polygon3037"
     points="164.19434,286.93848 173.68359,277.69043 160.57275,277.70215 154.70166,263.90527 148.8418,277.70215 135.73193,277.69043 145.21533,286.93848 142.97266,300 154.70166,293.83398 166.42676,300 " /><polygon
     id="polygon3039"
     points="201.73877,255.61621 211.22656,246.36816 198.11719,246.37695 192.24805,232.58301 186.3833,246.37695 173.2749,246.36816 182.75977,255.61621 180.51562,268.67773 192.24805,262.51172 203.97119,268.67773 " /><polygon
     id="polygon3041"
     points="231.97949,214.95996 241.4707,205.70996 228.35791,205.72266 222.48877,191.9248 216.62695,205.72266 203.51709,205.70996 213.00049,214.95996 210.75928,228.01953 222.48877,221.85352 234.21191,228.01953 " /><polygon
     id="polygon3043"
     points="78.36377,286.93848 68.877441,277.69043 81.98584,277.70215 87.856445,263.90527 93.718262,277.70215 106.82764,277.69043 97.344238,286.93848 99.587402,300 87.856445,293.83398 76.131348,300 " /><polygon
     id="polygon3045"
     points="40.383301,255.61621 30.894043,246.36816 44.005371,246.37695 49.875977,232.58301 55.737793,246.37695 68.847168,246.36816 59.362305,255.61621 61.605469,268.67773 49.875977,262.51172 38.149414,268.67773 " /><polygon
     id="polygon3047"
     points="9.4882813,214.95996 0,205.70996 13.109863,205.72266 18.980469,191.9248 24.842285,205.72266 37.950195,205.70996 28.466797,214.95996 30.709961,228.01953 18.980469,221.85352 7.2558594,228.01953 " /></g>
</svg>