<?xml version="1.0" encoding="UTF-8" standalone="no"?>
<!-- Created with Inkscape (http://www.inkscape.org/) -->

<svg
   width="270.93332mm"
   height="270.93332mm"
   viewBox="0 0 270.93332 270.93332"
   version="1.1"
   id="svg1"
   xml:space="preserve"
   xmlns="http://www.w3.org/2000/svg"
   xmlns:svg="http://www.w3.org/2000/svg"><defs
     id="defs1" /><g
     id="layer1"
     transform="translate(528.94489,90.134094)"
     style="display:inline"><g
       id="g19"><path
         style="fill:#fcfcfb"
         d="m -413.05739,180.4125 c -5.91472,-1.26846 -11.20643,-4.70637 -13.67407,-8.88375 -0.29607,-0.5012 -0.63131,-0.7621 -0.87707,-0.68256 -0.2188,0.0708 -1.18326,0.42563 -2.14325,0.78849 -5.07851,1.91957 -10.15919,1.94432 -15.1184,0.0736 -6.02923,-2.27432 -10.08998,-6.52555 -12.86706,-13.4706 -0.25592,-0.64002 -0.38629,-0.70761 -1.02389,-0.53076 -0.40185,0.11145 -2.39751,0.20029 -4.4348,0.19741 -4.19312,-0.006 -6.46482,-0.49657 -9.78958,-2.11437 -6.50896,-3.16721 -11.01394,-9.68872 -11.68938,-16.9218 l -0.15703,-1.68165 -1.61742,-0.18487 c -3.81022,-0.43549 -8.10979,-2.15191 -11.18934,-4.46685 -3.78912,-2.84833 -7.21277,-8.12439 -8.42707,-12.98662 -0.52165,-2.08876 -0.62231,-6.48416 -0.18937,-8.26864 l 0.27292,-1.12489 -2.18622,-1.0245 c -3.01833,-1.41443 -4.99892,-2.81833 -7.06317,-5.00654 -2.21576,-2.34881 -3.66147,-4.782414 -4.7472,-7.991057 -0.70907,-2.09553 -0.87059,-3.026236 -0.97124,-5.596418 -0.14506,-3.704369 0.19236,-5.868866 1.4164,-9.086031 l 0.90674,-2.383175 -1.1241,-0.909915 c -2.3055,-1.866207 -4.98155,-4.836574 -6.13953,-6.814748 -2.95201,-5.042925 -3.78652,-11.249028 -2.25082,-16.739065 0.64881,-2.319452 2.45233,-5.910677 3.97006,-7.905294 l 1.07499,-1.412773 -1.03939,-1.365352 c -2.33486,-3.067096 -3.6498,-5.837162 -4.42509,-9.321937 -0.60159,-2.704061 -0.41228,-7.591417 0.40382,-10.424714 1.2936,-4.491103 4.53381,-8.96621 8.50698,-11.749126 l 0.5767,-0.403935 -0.8209,-1.835911 c -1.23735,-2.767286 -1.74178,-5.6783825 -1.56381,-9.0248895 0.18259,-3.4334322 0.86314,-5.9317852 2.56184,-9.4048364 2.27015,-4.6413941 5.18075,-7.5664771 9.8851,-9.9343081 1.432,-0.720766 2.76918,-1.310483 2.9715,-1.310483 0.28961,0 0.32673,-0.267361 0.17449,-1.256771 -0.35395,-2.300318 -0.19601,-7.490361 0.28382,-9.326562 0.62717,-2.40008 2.5524,-6.174845 4.14616,-8.129297 3.38091,-4.146081 8.26472,-6.821573 14.16206,-7.758394 1.16416,-0.184933 2.20414,-0.466091 2.31105,-0.624796 0.10691,-0.158704 0.19704,-0.705272 0.20029,-1.214595 0.0109,-1.715104 1.07047,-5.407038 2.23999,-7.805208 2.11557,-4.338121 5.64058,-7.756031 10.19814,-9.888293 3.26435,-1.527229 5.93002,-1.997701 10.22139,-1.803999 l 3.47503,0.156855 0.55285,-1.508323 c 3.01741,-8.232205 12.84192,-14.322 22.13042,-13.717711 2.55448,0.166189 5.48232,0.841764 7.76818,1.792448 1.26709,0.526981 1.44312,0.54525 1.65228,0.171491 0.61701,-1.102534 2.85082,-3.560926 4.38692,-4.827974 5.15452,-4.251684 12.4442,-5.886128 18.90492,-4.238733 2.29825,0.586022 5.56753,2.199861 7.63023,3.766564 l 1.71336,1.30137 1.59393,-1.185005 c 1.99872,-1.485942 5.81016,-3.300082 8.11895,-3.864391 5.34361,-1.306075 11.44007,-0.5656 16.36144,1.987255 3.2947,1.70906 5.03886,3.263162 7.55935,6.735624 l 0.54789,0.754828 1.31622,-0.566225 c 11.28251,-4.853603 23.81482,0.249821 28.44946,11.585222 l 0.86205,2.108396 1.33616,-0.200532 c 2.33387,-0.350272 6.76643,-0.200298 9.00907,0.304818 4.09241,0.921744 7.8015,3.051091 10.73928,6.165292 3.12087,3.308293 4.9734,7.191497 5.58974,11.71707 l 0.32236,2.366887 1.19931,0.15246 c 2.06643,0.26269 5.49375,1.160838 7.04114,1.845166 6.85608,3.032087 12.60763,10.843999 13.2791,18.036048 0.19236,2.060385 0.0424,5.165118 -0.31155,6.448594 -0.1697,0.615397 -0.0787,0.708364 1.11292,1.136861 0.71376,0.256662 2.19855,0.993974 3.29955,1.638472 9.15879,5.361346 12.97424,16.91485295 8.85958,26.8275433 l -0.81468,1.9626647 1.29996,1.063184 c 4.45784,3.645886 6.96366,7.328052 8.37068,12.300243 0.76182,2.692146 0.81406,8.049794 0.1036,10.624783 -0.68299,2.47545 -2.04588,5.285672 -3.72683,7.684567 -0.80472,1.148412 -1.46312,2.161105 -1.46312,2.250428 0,0.08932 0.40796,0.660266 0.90658,1.268761 1.52968,1.866776 3.03358,4.681854 3.90902,7.317077 0.77311,2.327214 0.83601,2.788129 0.84855,6.217708 0.0113,3.073669 -0.0873,4.055407 -0.5791,5.7677 -1.35861,4.730483 -4.21955,8.832962 -8.31853,11.928459 l -0.98453,0.7435 0.55414,1.086192 c 1.61263,3.161023 2.27843,7.145971 1.81588,10.868336 -1.09436,8.806645 -6.28286,15.7827 -14.10394,18.96305 l -1.53213,0.62303 0.20922,1.86507 c 0.78853,7.02928 -1.0401,12.96609 -5.43553,17.64694 -3.74489,3.98807 -8.47492,6.33367 -14.10704,6.99561 l -1.47856,0.17378 -0.16847,1.61179 c -0.28344,2.71189 -0.94439,4.94878 -2.28599,7.73662 -2.69886,5.60825 -8.39044,10.10703 -14.33789,11.33306 -2.14101,0.44135 -6.09636,0.5306 -8.19415,0.18489 l -1.23769,-0.20397 -0.68852,1.8878 c -1.7462,4.78778 -5.80161,8.95028 -11.10915,11.40252 -5.8234,2.69057 -12.37178,2.90909 -18.13792,0.60524 l -1.98388,-0.79265 -0.39737,0.60134 c -2.74547,4.15473 -7.53552,7.53035 -12.5682,8.857 -2.5554,0.67361 -8.28901,0.67883 -10.71563,0.01 -2.4054,-0.66324 -5.24562,-2.07385 -7.28765,-3.61946 -0.95491,-0.72277 -1.83259,-1.31412 -1.95039,-1.31412 -0.11781,0 -0.67705,0.36864 -1.24276,0.81921 -1.80918,1.44095 -4.47728,2.85346 -7.02123,3.7171 -2.23427,0.7585 -2.83295,0.84774 -6.17817,0.92096 -2.46025,0.0538 -4.28171,-0.0428 -5.42396,-0.28775 z m 8.51585,-3.17238 c 3.61586,-0.76634 6.8289,-2.43475 9.65171,-5.01179 l 1.70816,-1.55945 0.9762,0.92728 c 2.69696,2.56181 5.84756,4.46785 8.9295,5.40214 2.15222,0.65245 7.24382,0.64846 9.64149,-0.008 4.30178,-1.17699 8.14047,-4.09235 10.83272,-8.22709 0.75695,-1.16254 1.42185,-2.15927 1.47754,-2.21496 0.0557,-0.0557 0.61265,0.1981 1.23769,0.56399 5.79955,3.39493 12.63822,3.70151 18.70774,0.83868 5.60642,-2.64441 9.25033,-7.0273 10.11355,-12.16458 0.32938,-1.96024 0.35206,-2.00135 1.01041,-1.83157 1.60936,0.41503 5.29869,0.91276 6.75889,0.91184 4.9562,-0.003 9.23547,-1.77781 12.79753,-5.30745 3.24162,-3.21212 4.86695,-6.95979 5.38497,-12.41662 0.15887,-1.67349 0.31967,-3.08224 0.35733,-3.13054 0.0377,-0.0483 1.25903,-0.19125 2.71416,-0.31764 4.66283,-0.40502 8.17443,-1.664 11.34688,-4.06807 2.95758,-2.24124 5.3382,-5.87347 6.34552,-9.68167 0.6398,-2.41879 0.57734,-7.14405 -0.1294,-9.78958 -0.29157,-1.09141 -0.49443,-2.02243 -0.45081,-2.06893 0.0436,-0.0465 0.77549,-0.26227 1.62636,-0.47947 0.85087,-0.2172 2.67435,-0.93858 4.05217,-1.60307 2.14134,-1.03272 2.85394,-1.55862 4.90729,-3.62157 1.93568,-1.94474 2.61704,-2.850162 3.50861,-4.662377 2.31218,-4.699778 2.93335,-9.911307 1.67142,-14.022916 -0.72822,-2.372655 -1.02819,-2.980531 -2.28037,-4.620972 -0.52556,-0.688523 -0.91766,-1.273885 -0.87132,-1.300804 7.23243,-4.201895 10.75395,-9.338106 11.24377,-16.399258 0.31972,-4.609 -1.38962,-9.433346 -4.73571,-13.365781 -0.91372,-1.073843 -1.77781,-2.112534 -1.92019,-2.308201 -0.18842,-0.258934 -0.003,-0.627674 0.68194,-1.354849 2.33813,-2.482942 4.11532,-5.380155 5.17133,-8.43042 0.64742,-1.87003 0.72421,-2.46108 0.71893,-5.533254 -0.005,-2.99896 -0.0955,-3.710736 -0.70546,-5.55625 -0.38474,-1.164167 -1.14907,-2.883725 -1.69849,-3.821241 -1.26529,-2.159034 -4.40865,-5.35326 -6.86586,-6.976958 l -1.89814,-1.254278 1.17431,-2.479008 c 2.93076,-6.1868872 2.98749,-11.8969577 0.17476,-17.5908808 -0.74578,-1.5097168 -1.55118,-2.5701145 -3.24132,-4.2675502 -2.49723,-2.508009 -4.78489,-3.864887 -8.66023,-5.136618 l -2.17793,-0.714712 0.48837,-0.972084 c 1.21452,-2.417477 1.52166,-6.671546 0.71137,-9.852971 -1.36758,-5.36951 -5.60227,-10.680814 -10.32186,-12.94604 -2.82389,-1.355363 -4.73509,-1.835057 -8.08555,-2.029405 l -2.77813,-0.161148 -0.0697,-2.448714 c -0.2756,-9.684182 -6.56936,-16.833404 -15.94985,-18.117771 -2.3529,-0.322158 -5.06572,-0.176635 -8.03084,0.430797 -1.00396,0.205669 -1.85101,0.342082 -1.88234,0.30314 -0.0313,-0.03894 -0.32632,-0.904241 -0.65555,-1.922887 -1.97316,-6.105091 -4.94704,-9.843293 -9.65965,-12.142285 -3.08042,-1.502747 -4.66515,-1.871017 -8.06979,-1.87531 -3.46655,-0.0044 -5.33429,0.457714 -9.33047,2.30839 -1.27546,0.590678 -2.35387,1.026109 -2.39646,0.967625 -0.0426,-0.05849 -0.47745,-0.939773 -0.96635,-1.958419 -1.10648,-2.305439 -3.91059,-5.196464 -6.35672,-6.553763 -3.88126,-2.153614 -9.49064,-3.050516 -13.76375,-2.200728 -3.28212,0.652709 -7.05147,2.55524 -9.43539,4.762384 -1.03552,0.958732 -1.93414,1.743149 -1.99694,1.743149 -0.0628,0 -0.75944,-0.598993 -1.54811,-1.331096 -5.20964,-4.836004 -11.53685,-6.553712 -17.98549,-4.882699 -4.55249,1.179666 -8.8417,4.613033 -11.48128,9.190357 -0.39861,0.691224 -0.7756,1.256771 -0.83776,1.256771 -0.0622,0 -1.05866,-0.475456 -2.21444,-1.05657 -3.35251,-1.685607 -5.66834,-2.233659 -9.39622,-2.223657 -2.87354,0.0077 -3.41365,0.08988 -5.68854,0.865433 -7.11522,2.425712 -11.71649,7.208363 -12.7536,13.256354 -0.17528,1.022142 -0.40613,1.858439 -0.513,1.858439 -0.10687,0 -1.00537,-0.199512 -1.99666,-0.443359 -1.21099,-0.297889 -2.93092,-0.444765 -5.24194,-0.447642 -3.07675,-0.0038 -3.66287,0.0729 -5.55625,0.727407 -3.14414,1.086868 -4.77668,2.124094 -7.30612,4.641908 -1.86605,1.857475 -2.47302,2.676095 -3.34956,4.517519 -1.23088,2.58582 -1.80895,4.930772 -2.06826,8.389881 l -0.18267,2.436756 -1.08732,0.132016 c -0.59803,0.07261 -1.82126,0.201217 -2.71829,0.285796 -2.3025,0.217096 -5.18096,1.058375 -7.49716,2.191173 -1.49037,0.728908 -2.55087,1.532074 -4.25999,3.226298 -2.53784,2.515727 -3.8157,4.570129 -4.77688,7.679746 -0.82792,2.678504 -0.83946,7.346176 -0.0257,10.401898 0.39404,1.479685 0.463,2.091969 0.24253,2.153499 -2.72308,0.759973 -5.23215,1.708125 -6.57569,2.484883 -2.07028,1.196921 -5.60622,4.69389 -6.7936,6.7187304 -1.28423,2.1900102 -2.41707,5.7023049 -2.74612,8.51417983 -0.48015,4.10316037 0.67246,8.55813447 2.94247,11.37294877 l 0.83274,1.0326 -1.92143,1.232854 c -7.28429,4.673842 -10.57888,11.852641 -9.06671,19.756056 0.65643,3.430849 3.07969,7.777413 5.79489,10.394196 l 0.93857,0.904558 -0.99372,1.079817 c -6.3784,6.931003 -7.81661,14.779296 -4.10083,22.378096 1.0284,2.103101 1.59911,2.880393 3.49986,4.766735 1.2491,1.23963 3.06339,2.764553 4.03174,3.388719 l 1.76066,1.134847 -1.13215,2.218753 c -2.97339,5.827195 -3.15931,11.603469 -0.55357,17.198915 2.23377,4.796682 5.95898,7.904862 11.92275,9.947872 1.32781,0.45487 2.0965,0.85631 2.06255,1.07716 -0.0298,0.19363 -0.32051,1.06643 -0.64611,1.93955 -0.48609,1.30352 -0.59226,2.1318 -0.59351,4.63021 -0.001,2.64182 0.0951,3.32159 0.73171,5.15937 1.8641,5.38117 5.40398,9.50931 10.08702,11.76331 2.60842,1.25546 4.87696,1.8236 8.13635,2.0377 l 2.50464,0.16453 0.16767,2.55845 c 0.50619,7.72417 3.95323,13.14928 10.35801,16.30194 4.03995,1.98862 8.41866,2.39751 13.73162,1.28229 1.00396,-0.21074 1.85031,-0.3513 1.88078,-0.31236 0.0305,0.0389 0.32129,0.95865 0.64627,2.04379 1.99496,6.6615 6.01861,10.9553 12.31633,13.14325 1.88245,0.65401 2.48262,0.73472 5.42395,0.72944 3.71819,-0.007 5.66793,-0.50011 9.58789,-2.42648 l 2.04726,-1.00608 0.93148,1.96144 c 1.05954,2.23109 3.86184,5.25257 6.05486,6.52846 4.01955,2.33854 9.86055,3.32042 14.23603,2.39309 z m 4.84561,-27.56945 c -13.01748,-1.02519 -22.00972,-3.00909 -32.41146,-7.15075 -33.99036,-13.53393 -58.55788,-43.634083 -64.67774,-79.243232 -1.18023,-6.867313 -1.3358,-8.957051 -1.3358,-17.944123 0,-8.970387 0.14657,-10.926981 1.3426,-17.922797 7.54013,-44.103829 43.40613,-78.947022 87.92285,-85.415531 25.31478,-3.678367 50.80349,2.01461 72.26267,16.140073 20.57498,13.543446 35.69587,33.8594331 42.8447,57.564924 3.1195,10.344262 4.43179,20.42585 4.17732,32.092151 -0.14988,6.871508 -0.51468,10.572442 -1.64576,16.696545 -4.37673,23.697277 -17.22838,45.53655 -35.98355,61.14813 -18.94275,15.76772 -43.05937,24.42129 -67.33646,24.1618 -2.25557,-0.0241 -4.57729,-0.0813 -5.15937,-0.12719 z m 14.55208,-6.46605 c 26.18677,-2.17938 51.12974,-15.57151 67.85506,-36.43205 9.79801,-12.220496 16.69285,-26.819063 19.70824,-41.728547 1.43706,-7.105526 1.83347,-11.271787 1.85032,-19.446874 0.0164,-7.945271 -0.18752,-10.591289 -1.32524,-17.197916 -6.11945,-35.5351896 -31.96862,-65.316017 -66.45426,-76.561949 -13.65574,-4.453201 -28.31929,-5.879882 -42.17309,-4.103204 l -2.34749,0.301053 v 12.400802 12.400801 l 29.96406,0.0016 29.96406,0.0016 2.72186,1.704628 c 2.95531,1.850825 7.94441,5.522352 9.84585,7.245651 l 1.19063,1.079076 -36.84323,0.01085 -36.84323,0.01085 v 7.5406245 7.5406246 l 43.66408,0 43.66408,0 1.66624,2.57968739 c 1.51233,2.34140971 4.13893,6.85102491 4.13893,7.10613881 0,0.057066 -2.29195,0.1053208 -5.09323,0.1072325 -3.93423,0.00268 -5.63897,0.1161106 -7.49148,0.4984484 -10.81392,2.2318748 -17.22079,11.6551918 -13.88792,20.4265778 1.54836,4.074975 5.76332,7.941163 10.6323,9.752529 3.02597,1.125728 4.78504,1.324128 11.78286,1.328956 l 6.65815,0.0046 0.22102,2.05052 c 0.40632,3.769864 0.23964,15.214817 -0.27263,18.71927 -1.56933,10.735876 -5.03628,20.835495 -10.08191,29.369824 -0.65913,1.114863 -1.19841,2.132979 -1.19841,2.26248 0,0.129502 1.66257,0.268492 3.69461,0.308867 l 3.69461,0.07341 -2.22292,3.307291 c -1.22261,1.819011 -2.76786,3.991901 -3.4339,4.828641 l -1.21097,1.52136 h -3.9486 -3.9486 l -4.18347,4.16719 c -6.35335,6.32862 -12.46884,10.83709 -19.99858,14.74336 -4.42275,2.29444 -11.23271,5.16653 -12.25024,5.16653 -0.28617,0 -4.52751,-8.65688 -4.32229,-8.82212 0.0597,-0.048 1.41817,-0.52957 3.01889,-1.07006 7.12646,-2.40624 17.18496,-8.24954 22.75417,-13.21859 l 1.05833,-0.94428 -49.29704,-0.011 -49.29705,-0.011 0.0845,0.59531 c 0.20866,1.46917 9.99218,7.61583 17.07016,10.72461 l 1.90436,0.83643 -1.28722,2.74967 c -2.64779,5.65601 -2.88025,6.04218 -3.52473,5.8552 -1.25649,-0.36453 -8.67063,-4.12864 -11.36604,-5.77045 l -2.84427,-1.73249 v 4.74794 c 0,2.61137 -0.0686,4.74794 -0.15251,4.74794 -0.26455,0 -4.10547,-2.62226 -6.92052,-4.72477 l -2.70741,-2.0221 -0.005,-5.02294 -0.005,-5.02295 -2.97224,-2.9807 -2.97225,-2.9807 h -4.73765 c -4.19492,0 -4.77996,-0.053 -5.10706,-0.46302 -0.20318,-0.25466 -1.6866,-2.427554 -3.29649,-4.828647 l -2.92707,-4.365625 3.86263,-0.07322 c 2.12445,-0.04027 3.86263,-0.148465 3.86263,-0.240432 0,-0.09197 -0.69865,-1.249644 -1.55257,-2.572614 -4.92704,-7.633451 -8.73921,-16.60132 -10.86384,-25.556442 -1.63358,-6.885367 -1.98205,-10.187718 -1.98227,-18.785416 -1.7e-4,-6.666223 0.082,-8.326923 0.56288,-11.380404 1.82643,-11.596688 5.22248,-21.102832 11.04044,-30.9041604 6.51685,-10.9787103 16.72136,-21.3715546 28.01528,-28.5323346 l 2.648,-1.67893 10.93687,0 10.93688,0 v -11.377083 c 0,-8.925296 -0.0713,-11.377075 -0.33073,-11.377047 -0.1819,2e-5 -1.9253,0.481239 -3.87423,1.069377 -15.15559,4.573591 -28.81629,12.614874 -40.2096,23.669128 -14.67959,14.242737 -24.41792,32.1633337 -28.18064,51.85833 -1.35287,7.081279 -1.6145,10.055894 -1.61733,18.388541 -0.003,7.933755 0.19792,10.70346 1.20735,16.668749 5.1804,30.613766 24.82356,57.164389 52.76455,71.319049 16.41419,8.31528 34.12771,11.71254 52.91667,10.14884 z m -68.19554,-93.175701 0.0669,-42.2671851 h -4.32473 l -4.32474,0 -2.13768,4.1671871 c -3.44132,6.70851 -5.47631,12.375316 -6.81071,18.965696 -4.27548,21.11584 0.93661,42.559072 14.49026,59.61491 1.32192,1.663499 1.6552,1.938835 2.26202,1.868761 l 0.71167,-0.08218 z m 35.5195,21.10052 V 49.830482 h -12.83229 -12.83229 v 21.298957 21.298957 h 12.83229 12.83229 z m 82.75955,20.30677 c 1.12615,-1.426655 4.01343,-5.951321 5.27614,-8.268229 4.81626,-8.837243 7.74043,-19.355179 8.1834,-29.434894 l 0.17151,-3.902604 h -43.30051 -43.30051 v 21.298957 21.298957 h 36.09339 36.09339 z M -417.81989,23.769025 V 7.7617339 h -12.83229 -12.83229 V 23.769025 39.776316 h 12.83229 12.83229 z m 70.59148,14.221353 c -1.69699,-2.238399 -3.4788,-5.905849 -4.20989,-8.665104 -0.79009,-2.981902 -0.79009,-8.130597 0,-11.112499 0.73109,-2.759254 2.5129,-6.426704 4.20989,-8.6651036 l 1.35397,-1.7859375 h -31.07793 -31.07794 V 23.769025 39.776316 h 31.07794 31.07793 z m -70.59148,-47.5588515 v -7.5406245 h -9.74749 -9.74748 l -2.3572,1.631217 c -3.94608,2.730743 -7.47598,5.7056571 -11.1546,9.4008167 -1.92815,1.9368226 -3.50573,3.6402326 -3.50573,3.7853555 0,0.172875 6.29518,0.2638599 18.25625,0.2638599 h 18.25625 z"
         id="path21" /><path
         style="fill:#791d2c"
         d="m -412.13135,177.23188 c -2.24655,-0.41798 -4.9054,-1.37205 -6.64622,-2.38485 -2.19302,-1.27589 -4.99532,-4.29737 -6.05486,-6.52846 l -0.93148,-1.96144 -2.04726,1.00608 c -3.91996,1.92637 -5.8697,2.41981 -9.58789,2.42648 -2.94133,0.005 -3.5415,-0.0754 -5.42395,-0.72944 -6.29772,-2.18795 -10.32137,-6.48175 -12.31633,-13.14325 -0.32498,-1.08514 -0.6158,-2.00484 -0.64627,-2.04379 -0.0305,-0.0389 -0.87682,0.10162 -1.88078,0.31236 -5.31296,1.11522 -9.69167,0.70633 -13.73162,-1.28229 -6.40478,-3.15266 -9.85182,-8.57777 -10.35801,-16.30194 l -0.16767,-2.55845 -2.50464,-0.16453 c -3.25939,-0.2141 -5.52793,-0.78224 -8.13635,-2.0377 -4.68304,-2.254 -8.22292,-6.38214 -10.08702,-11.76331 -0.63663,-1.83778 -0.73303,-2.51755 -0.73171,-5.15937 0.001,-2.49841 0.10742,-3.32669 0.59351,-4.63021 0.3256,-0.87312 0.61635,-1.74592 0.64611,-1.93955 0.034,-0.22085 -0.73474,-0.62229 -2.06255,-1.07716 -5.96377,-2.04301 -9.68898,-5.15119 -11.92275,-9.947872 -2.60574,-5.595446 -2.41982,-11.37172 0.55357,-17.198915 l 1.13215,-2.218753 -1.76066,-1.134847 c -0.96835,-0.624166 -2.78264,-2.149089 -4.03174,-3.388719 -1.90075,-1.886342 -2.47146,-2.663634 -3.49986,-4.766735 -2.70283,-5.527312 -2.70317,-11.108177 -10e-4,-16.535779 0.96673,-1.94177 2.42913,-4.024703 4.10183,-5.842317 l 0.99372,-1.079817 -0.93857,-0.904558 c -2.7152,-2.616783 -5.13846,-6.963347 -5.79489,-10.394196 -1.51217,-7.903415 1.78242,-15.082214 9.06671,-19.756056 l 1.92143,-1.232854 -0.83274,-1.0326 c -2.27001,-2.8148143 -3.42262,-7.2697884 -2.94247,-11.37294877 0.32905,-2.81187493 1.46189,-6.32416963 2.74612,-8.51417983 1.18738,-2.0248404 4.72332,-5.5218094 6.7936,-6.7187304 1.34354,-0.776758 3.85261,-1.72491 6.57569,-2.484883 0.22047,-0.06153 0.15151,-0.673814 -0.24253,-2.153499 -0.81374,-3.055722 -0.8022,-7.723394 0.0257,-10.401898 0.96118,-3.109617 2.23904,-5.164019 4.77688,-7.679746 1.70912,-1.694224 2.76962,-2.49739 4.25999,-3.226298 2.3162,-1.132798 5.19466,-1.974077 7.49716,-2.191173 0.89703,-0.08458 2.12026,-0.213187 2.71829,-0.285796 l 1.08732,-0.132016 0.18267,-2.436756 c 0.25931,-3.459109 0.83738,-5.804061 2.06826,-8.389881 0.87654,-1.841424 1.48351,-2.660044 3.34956,-4.517519 2.52944,-2.517814 4.16198,-3.55504 7.30612,-4.641908 1.89338,-0.654504 2.4795,-0.731238 5.55625,-0.727407 2.31102,0.0029 4.03095,0.149753 5.24194,0.447642 0.99129,0.243847 1.88979,0.443359 1.99666,0.443359 0.10687,0 0.33772,-0.836297 0.513,-1.858439 1.03711,-6.047991 5.63838,-10.830642 12.7536,-13.256354 2.27489,-0.775553 2.815,-0.857722 5.68854,-0.865433 3.72788,-0.01 6.04371,0.53805 9.39622,2.223657 1.15578,0.581114 2.15227,1.05657 2.21444,1.05657 0.0622,0 0.43915,-0.565547 0.83776,-1.256771 2.63958,-4.577324 6.92879,-8.010691 11.48128,-9.190357 6.44864,-1.671013 12.77585,0.04669 17.98549,4.882699 0.78867,0.732103 1.48532,1.331096 1.54811,1.331096 0.0628,0 0.96142,-0.784417 1.99694,-1.743149 2.38392,-2.207144 6.15327,-4.109675 9.43539,-4.762384 4.27311,-0.849788 9.88249,0.04711 13.76375,2.200728 2.44613,1.357299 5.25024,4.248324 6.35672,6.553763 0.4889,1.018646 0.92375,1.899934 0.96635,1.958419 0.0426,0.05848 1.121,-0.376947 2.39646,-0.967625 3.99618,-1.850676 5.86392,-2.312761 9.33047,-2.30839 3.40464,0.0043 4.98937,0.372563 8.06979,1.87531 4.71261,2.298992 7.68649,6.037194 9.65965,12.142285 0.32923,1.018646 0.62422,1.883945 0.65555,1.922887 0.0313,0.03894 0.87838,-0.09747 1.88234,-0.30314 2.96512,-0.607432 5.67794,-0.752955 8.03084,-0.430797 9.38049,1.284367 15.67425,8.433589 15.94985,18.117771 l 0.0697,2.448714 2.77813,0.161148 c 3.35046,0.194348 5.26166,0.674042 8.08555,2.029405 4.71959,2.265226 8.95428,7.57653 10.32186,12.94604 0.81029,3.181425 0.50315,7.435494 -0.71137,9.852971 l -0.48837,0.972084 2.17793,0.714712 c 3.87534,1.271731 6.163,2.628609 8.66023,5.136618 1.69014,1.6974357 2.49554,2.7578334 3.24132,4.2675502 2.81273,5.6939231 2.756,11.4039936 -0.17476,17.5908808 l -1.17431,2.479008 1.89814,1.254278 c 2.45721,1.623698 5.60057,4.817924 6.86586,6.976958 0.54942,0.937516 1.31375,2.657074 1.69849,3.821241 0.60993,1.845514 0.7003,2.55729 0.70546,5.55625 0.005,3.072174 -0.0715,3.663224 -0.71893,5.533254 -1.05601,3.050265 -2.8332,5.947478 -5.17133,8.43042 -0.68476,0.727175 -0.87036,1.095915 -0.68194,1.354849 0.14238,0.195667 1.00647,1.234358 1.92019,2.308201 3.34609,3.932435 5.05543,8.756781 4.73571,13.365781 -0.48982,7.061152 -4.01134,12.197363 -11.24377,16.399258 -0.0463,0.02692 0.34576,0.612281 0.87132,1.300804 1.25218,1.640441 1.55215,2.248317 2.28037,4.620972 1.26193,4.111609 0.64076,9.323138 -1.67142,14.022916 -0.89157,1.812215 -1.57293,2.717637 -3.50861,4.662377 -2.05335,2.06295 -2.76595,2.58885 -4.90729,3.62157 -1.37782,0.66449 -3.2013,1.38587 -4.05217,1.60307 -0.85087,0.2172 -1.58273,0.43296 -1.62636,0.47947 -0.0436,0.0465 0.15924,0.97752 0.45081,2.06893 0.70674,2.64553 0.7692,7.37079 0.1294,9.78958 -1.00732,3.8082 -3.38794,7.44043 -6.34552,9.68167 -3.17245,2.40407 -6.68405,3.66305 -11.34688,4.06807 -1.45513,0.12639 -2.6765,0.26933 -2.71416,0.31764 -0.0377,0.0483 -0.19846,1.45705 -0.35733,3.13054 -0.51802,5.45683 -2.14335,9.2045 -5.38497,12.41662 -3.56206,3.52964 -7.84133,5.30436 -12.79753,5.30745 -1.4602,9.2e-4 -5.14953,-0.49681 -6.75889,-0.91184 -0.65835,-0.16978 -0.68103,-0.12867 -1.01041,1.83157 -0.86322,5.13728 -4.50713,9.52017 -10.11355,12.16458 -6.06952,2.86283 -12.90819,2.55625 -18.70774,-0.83868 -0.62504,-0.36589 -1.182,-0.61968 -1.23769,-0.56399 -0.0557,0.0557 -0.72059,1.05242 -1.47754,2.21496 -2.69225,4.13474 -6.53094,7.0501 -10.83272,8.22709 -2.39767,0.65602 -7.48927,0.66001 -9.64149,0.008 -3.08194,-0.93429 -6.23254,-2.84033 -8.9295,-5.40214 l -0.9762,-0.92728 -1.70816,1.55945 c -4.85417,4.43154 -10.89445,6.18445 -17.24152,5.00355 z m 25.26771,-27.65602 c 10.68182,-0.79497 20.46299,-2.92885 29.89791,-6.52259 29.21703,-11.12867 52.0641,-34.86748 62.09201,-64.515498 2.17228,-6.422451 3.77291,-13.466186 4.73421,-20.833388 0.57779,-4.42808 0.79666,-15.592041 0.39924,-20.36404 -1.36239,-16.35856 -6.23041,-31.6168356 -14.50159,-45.4536092 -12.63161,-21.1312928 -32.69033,-37.3984978 -55.9769,-45.3961028 -26.80973,-9.207605 -56.64046,-6.926618 -81.90544,6.262843 -28.73488,15.000911 -49.24502,43.0172979 -54.65413,74.656293 -1.19603,6.995816 -1.3426,8.95241 -1.3426,17.922797 0,8.987072 0.15557,11.07681 1.3358,17.944123 7.0072,40.772252 38.233,73.979602 78.69976,83.693972 5.62266,1.34976 10.68819,2.0935 18.38944,2.70001 2.55051,0.20087 9.55473,0.14912 12.83229,-0.0948 z m -11.77396,-6.10076 c -31.75751,-1.46128 -61.17201,-18.63663 -78.36005,-45.755037 -7.98508,-12.598446 -12.8422,-26.464483 -14.68986,-41.936457 -0.5419,-4.537745 -0.46096,-17.635206 0.13652,-22.092707 3.13099,-23.358628 12.8675,-42.9102597 29.31654,-58.869788 11.39331,-11.054254 25.05401,-19.095537 40.2096,-23.669128 1.94893,-0.588138 3.69233,-1.069357 3.87423,-1.069377 0.25946,-2.8e-5 0.33073,2.451751 0.33073,11.377047 v 11.377083 l -10.93688,0 -10.93687,0 -2.648,1.67893 c -5.34602,3.38958 -9.47654,6.669236 -14.20184,11.276325 -13.78101,13.43624946 -21.84646,29.064946 -24.85388,48.16017 -0.48091,3.053481 -0.56305,4.714181 -0.56288,11.380404 2.2e-4,8.597698 0.34869,11.900049 1.98227,18.785416 2.12463,8.955122 5.9368,17.922991 10.86384,25.556442 0.85392,1.32297 1.55257,2.480647 1.55257,2.572614 0,0.09197 -1.73818,0.200161 -3.86263,0.240432 l -3.86263,0.07322 2.92707,4.365625 c 1.60989,2.401093 3.09331,4.573987 3.29649,4.828647 0.3271,0.40998 0.91214,0.46302 5.10706,0.46302 h 4.73765 l 2.97225,2.9807 2.97224,2.9807 0.005,5.02295 0.005,5.02294 2.70741,2.0221 c 2.81505,2.10251 6.65597,4.72477 6.92052,4.72477 0.0839,0 0.15251,-2.13657 0.15251,-4.74794 v -4.74794 l 2.84427,1.73249 c 2.69541,1.64181 10.10955,5.40592 11.36604,5.77045 0.64448,0.18698 0.87694,-0.19919 3.52473,-5.8552 l 1.28722,-2.74967 -1.90436,-0.83643 c -7.07798,-3.10878 -16.8615,-9.25544 -17.07016,-10.72461 l -0.0845,-0.59531 49.29705,0.011 49.29704,0.011 -1.05833,0.94428 c -5.56921,4.96905 -15.62771,10.81235 -22.75417,13.21859 -1.60072,0.54049 -2.95923,1.02201 -3.01889,1.07006 -0.20522,0.16524 4.03612,8.82212 4.32229,8.82212 1.01753,0 7.82749,-2.87209 12.25024,-5.16653 7.52974,-3.90627 13.64523,-8.41474 19.99858,-14.74336 l 4.18347,-4.16719 h 3.9486 3.9486 l 1.21097,-1.52136 c 0.66604,-0.83674 2.21129,-3.00963 3.4339,-4.828641 l 2.22292,-3.307291 -3.69461,-0.07341 c -2.03204,-0.04038 -3.69461,-0.179365 -3.69461,-0.308867 0,-0.129501 0.53928,-1.147617 1.19841,-2.26248 5.04563,-8.534329 8.51258,-18.633948 10.08191,-29.369824 0.51227,-3.504453 0.67895,-14.949406 0.27263,-18.71927 l -0.22102,-2.05052 -6.65815,-0.0046 c -6.99782,-0.0048 -8.75689,-0.203228 -11.78286,-1.328956 -4.86898,-1.811366 -9.08394,-5.677554 -10.6323,-9.752529 -2.29309,-6.03491 -0.0168,-12.755861 5.70243,-16.837028 4.35993,-3.111177 8.08605,-4.0828177 15.67697,-4.0879982 2.80128,-0.00191 5.09323,-0.050166 5.09323,-0.1072325 0,-0.2551139 -2.6266,-4.7647291 -4.13893,-7.10613881 l -1.66624,-2.57968739 -43.66408,0 -43.66408,0 v -7.5406246 -7.5406245 l 36.84323,-0.01085 36.84323,-0.01085 -1.19063,-1.079076 c -1.90144,-1.723299 -6.89054,-5.394826 -9.84585,-7.245651 l -2.72186,-1.704628 -29.96406,-0.0016 -29.96406,-0.0016 v -12.400801 -12.400802 l 2.34749,-0.301053 c 13.8538,-1.776678 28.51735,-0.349997 42.17309,4.103204 34.48564,11.245932 60.33481,41.0267594 66.45426,76.561949 1.13772,6.606627 1.34161,9.252645 1.32524,17.197916 -0.0168,8.175087 -0.41326,12.341348 -1.85032,19.446874 -5.97649,29.550572 -26.07114,55.371817 -53.43205,68.659167 -15.00317,7.28602 -30.87488,10.54265 -47.625,9.77191 z m -57.74244,-52.965573 c -13.55365,-17.055838 -18.76574,-38.49907 -14.49026,-59.61491 1.3344,-6.59038 3.36939,-12.257186 6.81071,-18.965696 l 2.13768,-4.1671871 4.32474,0 h 4.32473 l -0.0669,42.2671851 -0.067,42.267186 -0.71167,0.08218 c -0.60682,0.07007 -0.9401,-0.205262 -2.26202,-1.868761 z m 12.89557,-19.380088 V 49.830482 h 12.83229 12.83229 v 21.298957 21.298957 h -12.83229 -12.83229 z m 35.45416,0 V 49.830482 h 43.30051 43.30051 l -0.17151,3.902604 c -0.44297,10.079715 -3.36714,20.597651 -8.1834,29.434894 -1.26271,2.316908 -4.14999,6.841574 -5.27614,8.268229 l -0.78319,0.992187 h -36.09339 -36.09339 z M -443.48447,23.769025 V 7.7617339 h 12.83229 12.83229 V 23.769025 39.776316 h -12.83229 -12.83229 z m 35.45416,0 V 7.7617339 h 31.07794 31.07793 l -1.35397,1.7859375 c -1.69699,2.2383996 -3.4788,5.9058496 -4.20989,8.6651036 -0.79009,2.981902 -0.79009,8.130597 0,11.112499 0.73109,2.759255 2.5129,6.426705 4.20989,8.665104 l 1.35397,1.785938 h -31.07793 -31.07794 z m -46.30208,-26.0607338 c 0,-0.1451229 1.57758,-1.8485329 3.50573,-3.7853555 3.67862,-3.6951596 7.20852,-6.6700737 11.1546,-9.4008167 l 2.3572,-1.631217 h 9.74748 9.74749 v 7.5406245 7.5406246 h -18.25625 c -11.96107,0 -18.25625,-0.090985 -18.25625,-0.2638599 z"
         id="path19" /></g></g></svg>
