<?xml version="1.0" encoding="UTF-8" standalone="no"?>
<!-- Created with Inkscape (http://www.inkscape.org/) -->

<svg
   width="926.04169mm"
   height="1062.5667mm"
   viewBox="0 0 926.04168 1062.5667"
   version="1.1"
   id="svg1"
   xml:space="preserve"
   xmlns="http://www.w3.org/2000/svg"
   xmlns:svg="http://www.w3.org/2000/svg"><defs
     id="defs1" /><g
     id="layer1"
     transform="translate(1122.7566,601.10327)"
     style="display:inline"><g
       id="g25"><path
         style="fill:#fdc904"
         d="m -684.20971,440.28444 c -36.84743,-1.2772 -61.11608,-4.47824 -96.15078,-12.68229 -13.98269,-3.27432 -27.49807,-7.39916 -43.8138,-13.3718 -19.8497,-7.26631 -42.1156,-17.7597 -60.16897,-28.35622 -32.7052,-19.19648 -60.1225,-40.77926 -85.75943,-67.50945 -18.02386,-18.79248 -38.18561,-45.03271 -53.49751,-69.6263 -14.3523,-23.05243 -29.7274,-54.25683 -39.6964,-80.56562 -14.4786,-38.21001 -22.4821,-67.85467 -30.3231,-112.315625 -3.7605,-21.323582 -6.5132,-46.9210273 -7.867,-73.15729 -0.6656,-12.899832 -0.7091,-15.235947 -0.6964,-37.438542 0.013,-22.848165 0.042,-24.21476 0.8252,-38.893749 1.5237,-28.561054 4.038,-52.006084 8.5168,-79.416914 8.2732,-50.63282 21.6503,-96.93812 41.3348,-143.08136 11.3618,-26.63383 28.6134,-58.276 44.9445,-82.43547 11.78408,-17.43287 29.10292,-39.04631 42.82494,-53.44438 23.4208,-24.57468 43.58628,-41.87689 68.52194,-58.79259 25.05471,-16.99646 49.55402,-29.74677 80.9625,-42.13577 9.78715,-3.86052 12.77104,-4.90114 23.01875,-8.02776 23.9917,-7.31996 43.57296,-11.62294 69.9823,-15.3786 11.18938,-1.59123 13.24829,-1.80449 25.53229,-2.6445 21.98635,-1.50347 39.2748,-1.85551 53.18125,-1.08289 15.3855,0.8548 23.1278,1.79926 39.16194,4.77728 23.88361,4.43591 52.82002,14.2085 79.50369,26.85049 4.36562,2.06832 9.42578,4.44497 11.24479,5.28145 3.80821,1.75123 11.05004,5.3908 24.20937,12.16706 15.89306,8.18396 40.22737,20.06692 50.66771,24.74212 10.95699,4.90654 30.52452,12.51266 39.15834,15.22126 3.54278,1.11145 3.59665,1.11941 6.61458,0.97724 2.58066,-0.12156 3.42441,-0.28119 5.55625,-1.0512 2.4704,-0.89228 4.24338,-1.62371 5.02708,-2.07389 3.24272,-1.86267 6.34352,-4.0884 8.15651,-5.85468 0.33873,-0.33001 1.18706,-1.73111 1.88517,-3.11356 2.96581,-5.87311 4.60746,-10.81758 6.10532,-18.38854 1.55818,-7.87586 4.74784,-13.8983 9.78217,-18.46983 2.72651,-2.47586 2.85924,-2.55767 7.14375,-4.40364 l 4.36563,-1.88092 4.63021,0.0212 4.6302,0.0212 4.96139,1.7804 4.96139,1.7804 3.37299,3.7307 c 3.3179,3.66978 3.39537,3.78415 4.74374,7.00375 1.96097,4.68233 2.64585,7.38022 2.98021,11.73972 0.2606,3.39776 0.85702,190.53847 0.80401,252.2802 -0.0172,20.05077 -2.06444,207.176251 -2.26908,207.403542 -0.20862,0.231716 -3.98871,-3.128162 -6.77952,-6.025883 -15.43184,-16.022993 -26.4606,-41.052649 -30.74404,-69.773319 -1.63456,-10.95976 -2.43328,-23.3111 -2.18836,-33.8408 0.16989,-7.30422 0.40212,-9.97362 1.38388,-15.90735 1.874,-11.32643 6.01558,-22.94086 11.19389,-31.39158 0.60346,-0.98483 1.09721,-1.84803 1.09721,-1.91823 0,-0.0702 -1.11634,-0.12763 -2.48075,-0.12763 -2.31859,0 -2.72934,-0.0891 -6.28385,-1.36387 -3.43117,-1.2305 -4.11224,-1.58629 -6.96407,-3.63802 -2.46969,-1.77681 -3.61461,-2.8219 -5.23532,-4.77883 -3.48112,-4.20328 -6.27818,-10.37435 -6.81103,-15.02698 -1.27324,-11.11726 -6.03445,-34.38454 -9.70435,-47.42355 -8.34268,-29.64125 -15.54918,-47.87614 -28.33693,-71.70208 -7.45909,-13.89767 -16.00327,-26.67191 -27.16475,-40.61354 -6.70041,-8.36938 -12.80892,-14.8438 -23.43562,-24.83946 -12.21836,-11.4928 -22.96155,-19.55387 -39.95208,-29.97773 -11.42071,-7.00673 -31.31141,-16.35841 -44.35896,-20.85553 -36.17032,-12.46688 -73.23113,-17.89131 -113.06813,-16.5493 -14.03989,0.47297 -26.17786,1.76328 -37.57083,3.99393 -18.36565,3.59584 -34.29752,8.51012 -48.15417,14.85346 -11.81574,5.40905 -21.23746,10.43062 -29.04147,15.47846 -24.12705,15.60602 -43.26183,32.86713 -61.53565,55.51008 -28.07087,34.78242 -49.99582,76.31295 -67.8171,128.46005 -4.8347,14.14689 -12.53846,41.37235 -15.81345,55.8855 -9.48827,42.04731 -15.13019,81.33768 -17.20243,119.79783 -1.2026,22.319851 -1.32009,26.554804 -1.31396,47.360413 0.007,22.388047 0.27767,29.840113 1.71315,47.0958331 3.60081,43.2851399 13.66452,92.5276229 27.06355,132.4239539 8.60366,25.61787 15.44184,42.07277 27.49266,66.15642 10.46359,20.91154 23.5555,42.22078 37.17937,60.51555 19.1033,25.6528 46.14238,51.97236 69.24512,67.40247 7.47487,4.99241 18.57908,11.75732 22.48958,13.70113 17.29159,8.5952 33.33478,14.83241 47.7573,18.5669 11.2021,2.90062 20.51378,4.63489 29.89791,5.5684 4.29287,0.42704 10.36506,0.92836 13.49376,1.11403 7.40231,0.43931 23.36581,0.43452 28.17812,-0.008 2.03729,-0.18752 6.91886,-0.63359 10.84792,-0.99125 23.07369,-2.10038 43.74159,-7.0306 67.60104,-16.12586 15.83551,-6.03652 33.7329,-15.40716 48.15417,-25.21234 7.55243,-5.13499 14.91455,-10.56776 18.91771,-13.96004 20.38219,-17.27195 32.69191,-30.4422 48.45618,-51.84363 7.52198,-10.21176 12.12852,-17.39334 20.24466,-31.56133 9.22417,-16.10222 19.74288,-39.97877 27.06699,-61.43971 4.41968,-12.95043 10.1972,-32.91306 10.19816,-35.23692 9.3e-4,-2.27407 1.76143,-9.99708 2.87547,-12.61422 0.45558,-1.07026 0.82833,-2.07306 0.82833,-2.22843 0,-0.15537 -0.57611,-0.94658 -1.28024,-1.75823 -10.65278,-12.279428 -19.05104,-24.309128 -23.74992,-34.019487 -3.77862,-7.808594 -5.8001,-14.529055 -8.8095,-29.287363 -1.44848,-7.10349 -2.03954,-11.386894 -2.67639,-19.395969 -0.4529,-5.695777 -0.80497,-20.8099626 -0.61829,-26.5437308 l 0.17505,-5.3770641 0.71091,1.1437308 c 1.51329,2.4346346 9.00689,15.4688033 12.37034,21.5166471 3.82465,6.877123 9.65401,18.374947 12.74357,25.135416 5.97773,13.080227 13.45838,32.014721 19.33837,48.947916 1.06116,3.055938 2.01424,5.652956 2.11796,5.771151 0.10371,0.118196 1.29002,-0.452988 2.63623,-1.269298 3.00407,-1.821585 7.79763,-3.774043 9.92908,-4.044197 1.91647,-0.242907 1.90972,0.172338 0.0929,-5.712126 -2.74525,-8.891717 -4.30196,-16.707274 -6.0188,-30.21771 -1.81722,-14.300324 -1.70353,-22.093991 0.51469,-35.28445 2.35827,-14.0231798 6.0918,-23.9768864 13.76972,-36.710421 6.23135,-10.334453 13.44088,-18.015426 21.74495,-23.166885 2.23289,-1.385182 5.95887,-3.259688 6.12396,-3.080906 0.0509,0.05514 0.46094,36.7715104 0.91115,81.591926 0.63251,62.968903 0.89486,81.76229 1.15421,82.68229 0.2691,0.9546 0.33564,27.52067 0.33564,134.01146 v 132.82083 l -0.60912,2.77812 c -1.16934,5.33317 -2.59072,8.83492 -4.91854,12.11742 -4.86764,6.86395 -12.20251,10.9793 -21.05164,11.81138 -3.11829,0.29321 -3.51799,0.27272 -7.41459,-0.38003 l -4.11862,-0.68995 -3.56562,-2.15274 c -2.83996,-1.71462 -4.0305,-2.62721 -5.84986,-4.4841 -3.52969,-3.6025 -6.39139,-7.80317 -7.62651,-11.19489 -0.34445,-0.94589 -0.79442,-2.05852 -0.99994,-2.47252 -0.34706,-0.69911 -1.04199,-2.52932 -2.57735,-6.7879 -3.11851,-8.64969 -10.24475,-21.40647 -14.8485,-26.58051 -3.0618,-3.44108 -4.37369,-4.50614 -7.37436,-5.98688 -3.45324,-1.70408 -6.33887,-2.34458 -10.59119,-2.35082 -6.39175,-0.009 -10.79082,1.20507 -19.14683,5.28587 -4.91188,2.39881 -13.36922,7.38286 -17.47913,10.30076 -0.93554,0.66419 -2.80577,1.922 -4.15609,2.79512 -2.59896,1.68051 -4.26065,2.79935 -13.9867,9.4174 -3.34698,2.27744 -7.3951,4.88942 -8.99583,5.8044 -1.60073,0.91498 -3.39263,1.99115 -3.98201,2.39149 -3.7045,2.51634 -31.51307,15.95483 -44.30445,21.41012 -1.96453,0.83784 -4.7625,2.05689 -6.21771,2.709 -1.45521,0.65211 -3.89855,1.67204 -5.42964,2.26651 -1.5311,0.59447 -3.79329,1.5166 -5.02709,2.04919 -4.93557,2.13049 -24.42391,8.95908 -33.86098,11.86466 -10.89589,3.35474 -27.9522,7.71544 -35.32188,9.03055 -1.30968,0.23371 -3.86953,0.70829 -5.68854,1.0546 -10.0543,1.91422 -23.22053,3.54832 -34.06399,4.22779 -3.45673,0.21661 -7.78785,0.51788 -9.62472,0.6695 -4.74027,0.39128 -13.63023,0.78501 -16.90087,0.74852 -1.52797,-0.017 -8.85031,-0.24146 -16.27188,-0.49871 z m 31.08855,-20.64663 c 51.66996,-2.43022 99.28008,-16.33648 160.46979,-46.87102 10.07831,-5.02922 14.81576,-7.87577 28.37194,-17.04762 18.22372,-12.32983 23.66403,-15.70051 31.95306,-19.79734 8.60056,-4.2508 15.12931,-6.42818 22.28112,-7.43087 4.54878,-0.63775 11.5687,-0.39745 15.5543,0.53243 12.22813,2.85297 20.08405,8.37271 28.2653,19.85978 5.58917,7.84762 11.87698,20.3388 16.0489,31.88229 0.7626,2.11006 1.75408,4.53476 2.2033,5.38823 1.77455,3.37144 4.52296,5.46115 7.17872,5.45821 3.81015,-0.004 6.46565,-2.14744 7.69287,-6.20889 0.35135,-1.16276 0.39743,-16.5702 0.39669,-132.63538 l -8.4e-4,-131.3198 -0.54767,-2.68746 c -1.42453,-6.9903 -4.17391,-10.01936 -9.46454,-10.42734 -7.04679,-0.54341 -11.43025,3.17023 -13.55689,11.48532 -0.27196,1.06333 -0.6165,3.1225 -0.76565,4.57595 -0.29568,2.88132 -1.23404,6.83715 -3.88884,16.39408 -15.20025,54.71889 -39.62424,102.48073 -71.77669,140.36146 -7.09729,8.36175 -20.77388,22.43837 -28.19508,29.01976 -42.40759,37.60865 -92.82621,60.51392 -148.03438,67.2523 -9.92158,1.21097 -15.8874,1.66606 -26.99851,2.05954 -22.60654,0.80057 -45.31674,-1.517 -66.73368,-6.81017 -41.31667,-10.21135 -79.80971,-31.68618 -113.82946,-63.50417 -24.96639,-23.35057 -46.8229,-51.27397 -66.35241,-84.77038 -5.18226,-8.88846 -8.54439,-15.17598 -14.07732,-26.32605 -5.42035,-10.92316 -7.23603,-14.84043 -11.71175,-25.2677 -22.90647,-53.36622 -37.90259,-114.559513 -43.18288,-176.2125006 -1.64614,-19.2204124 -1.99908,-28.4497514 -1.99326,-52.1229164 0.005,-20.273142 0.18399,-27.459574 1.06761,-42.862499 5.98419,-104.313874 31.43672,-199.599674 72.47712,-271.330204 23.46275,-41.00827 51.22315,-73.39426 83.85125,-97.823 36.42991,-27.27516 79.0489,-43.40259 125.30621,-47.41704 15.96214,-1.38528 35.54873,-1.38687 53.71042,-0.004 88.43913,6.73219 159.62781,44.52663 207.85616,110.35191 19.97638,27.2651 35.72571,59.18327 46.81098,94.86884 5.81527,18.72045 10.07915,37.41582 13.4546,58.99302 1.21534,7.76896 2.00812,9.44014 5.24571,11.05798 1.39438,0.69678 1.90831,0.80911 3.70206,0.80911 1.15417,0 2.46253,-0.15953 2.9343,-0.35778 1.87787,-0.78912 3.34177,-3.00691 3.87746,-5.87431 0.38526,-2.06215 -0.13359,-270.77458 -0.52821,-273.56478 -0.33055,-2.33713 -1.41635,-4.57197 -2.60312,-5.35782 -1.06112,-0.70265 -2.5291,-0.77303 -3.92844,-0.18834 -2.36215,0.98696 -3.46229,2.9865 -4.43446,8.0597 -1.41918,7.40589 -4.50054,16.70046 -7.55773,22.79698 -3.21058,6.40243 -6.34151,9.92021 -12.94598,14.54555 -6.41996,4.49613 -14.14264,7.78135 -21.07979,8.96731 -3.38936,0.57944 -9.1497,0.69976 -11.92659,0.24911 -1.97915,-0.32119 -12.28162,-3.72468 -20.17487,-6.66491 -19.56241,-7.28697 -38.1449,-15.6982 -67.07187,-30.35959 -28.00836,-14.1958 -40.18237,-20.18804 -50.53542,-24.87433 -47.48918,-21.49592 -85.74539,-29.63904 -133.08542,-28.32826 -5.67531,0.15715 -13.23578,0.46238 -16.80104,0.6783 -72.57973,4.39555 -138.01046,25.71078 -194.73334,63.43786 -56.33052,37.46611 -102.63705,90.31122 -136.83938,156.16135 -33.7693,65.01663 -54.8487,141.6942 -61.7169,224.49895 -4.1094,49.544266 -3.2606,98.43009 2.5013,144.065627 17.1748,136.027553 76.2693,247.551893 167.34769,315.821943 27.94675,20.94818 58.20814,37.44234 91.67812,49.96975 20.28226,7.5914 43.50043,13.94165 66.14584,18.09112 31.68241,5.80537 67.18608,8.2348 98.68959,6.75307 z m -0.66146,-81.3373 c -18.85539,-0.97474 -38.97538,-4.70663 -54.81463,-10.16712 -26.68661,-9.20005 -52.04955,-24.18317 -74.43433,-43.97197 -10.48148,-9.26593 -22.05924,-21.30825 -31.13531,-32.38461 -10.60542,-12.94278 -16.81908,-21.718 -27.96911,-39.49925 -11.26655,-17.96709 -19.98042,-35.12727 -30.98616,-61.02088 -7.48793,-17.61715 -17.02725,-46.32652 -22.86327,-68.80892 -8.35248,-32.176644 -14.46512,-72.4582792 -16.46148,-108.479165 -0.46306,-8.355225 -0.55736,-13.116733 -0.55804,-28.178125 -0.002,-38.707998 1.949,-66.96211 7.22486,-104.64271 5.29193,-37.79535 14.96639,-79.39577 26.05824,-112.05104 10.6021,-31.2134 21.17372,-54.80277 36.04636,-80.43333 14.42234,-24.85455 31.23205,-46.76213 49.10247,-63.99376 19.75094,-19.04491 37.65494,-31.24414 62.0939,-42.30884 13.41776,-6.07487 29.74955,-11.1038 43.98259,-13.54323 25.17798,-4.31531 48.91807,-4.91778 78.10557,-1.98215 19.78196,1.98964 44.64597,7.54248 61.46168,13.72614 12.77197,4.69665 22.55822,9.02386 31.2257,13.80712 19.84403,10.95119 31.81731,19.42926 46.35117,32.82048 17.03752,15.69804 34.88687,38.83508 46.10377,59.76159 12.12022,22.61173 20.63856,44.06375 26.78821,67.46161 3.7949,14.43861 6.11277,25.2027 8.46058,39.29062 0.78818,4.72943 1.67192,9.61099 1.96386,10.84792 0.82397,3.49111 2.71485,8.31304 4.87694,12.43666 1.59317,3.03855 2.62568,4.57115 5.37424,7.97722 3.38018,4.18878 3.43099,4.23668 7.85289,7.40367 3.4365,2.46124 4.41252,3.28754 4.28317,3.62617 -0.2716,0.71102 -7.85377,12.21432 -8.03711,12.19351 -0.0922,-0.0105 -0.67376,-1.05226 -1.29241,-2.31511 -5.63369,-11.50002 -17.12085,-27.78353 -29.41708,-41.69989 -3.36545,-3.80888 -15.28518,-15.92866 -15.47646,-15.73621 -0.15774,0.15871 -1.41519,12.32737 -1.8702,18.09835 -3.16241,40.10945 -0.99663,74.68751 6.12338,97.76354 8.10964,26.28346 28.23703,54.69191 55.6558,78.554412 5.71524,4.97396 13.23227,10.938668 16.99948,13.488965 0.69123,0.467939 1.25678,0.943711 1.25678,1.057272 0,0.113561 -1.0255,1.328231 -2.27889,2.699268 -5.22553,5.716034 -11.36897,13.464169 -14.45879,18.235503 -4.69374,7.248137 -7.20403,13.5729265 -9.44165,23.7887001 -0.85439,3.9006884 -2.27567,12.2255249 -2.55843,14.9853939 -0.0962,0.938935 -0.25871,1.707155 -0.36113,1.707155 -0.10242,0 -0.9972,-1.339453 -1.9884,-2.976562 -7.5389,-12.4516341 -17.28018,-26.950123 -25.10986,-37.372396 -8.96048,-11.927497 -23.32669,-28.692363 -23.98697,-27.991938 -0.3411,0.36185 -2.18807,15.416668 -3.01215,24.552355 -1.72877,19.165089 -1.93136,39.483328 -0.52498,52.652083 2.10967,19.754163 10.46737,46.752127 19.40949,62.698714 3.47265,6.1928 8.14183,13.046525 10.17566,14.936465 0.84627,0.78641 0.84932,0.97581 0.0557,3.45871 -0.64277,2.01096 -2.02157,8.86862 -2.0149,10.02143 0.006,1.00208 -2.75513,11.14106 -5.30471,19.48051 -5.78882,18.93469 -11.73858,34.62917 -19.10778,50.40313 -7.32527,15.67991 -12.09474,24.25191 -21.71414,39.02604 -11.95399,18.35974 -27.54067,36.44221 -44.49247,51.61674 -13.32682,11.9296 -16.86327,14.61301 -32.27622,24.49072 -8.7887,5.63242 -14.04191,8.42357 -27.91355,14.8311 -19.46065,8.98918 -45.99543,16.13045 -68.65937,18.47819 -12.71705,1.31735 -25.72213,1.73756 -36.5125,1.17975 z m 17.156,-42.0228 c 25.36455,-18.98677 43.10186,-30.81833 65.394,-43.62065 22.06065,-12.66939 39.38896,-19.94115 53.5302,-22.46375 10.72414,-1.91304 23.01584,-5.91669 32.48432,-10.5808 9.15082,-4.50763 16.82008,-9.7883 24.66804,-16.98517 5.6234,-5.15686 9.31066,-10.21038 13.17032,-18.05042 4.38227,-8.90156 6.87166,-18.52447 7.76522,-30.01695 0.18852,-2.42456 0.27709,-57.483717 0.27792,-172.77291 8.3e-4,-113.18454 0.0915,-170.65983 0.27401,-173.57992 0.61431,-9.83167 2.31755,-20.41867 4.6156,-28.6896 0.36118,-1.29996 0.6289,-2.38431 0.59491,-2.40969 -0.034,-0.0254 -3.45507,-0.60989 -7.60241,-1.29893 -78.83343,-13.09747 -144.88089,-44.45283 -198.92605,-94.43813 -2.37876,-2.20006 -4.42296,-4.03659 -4.54267,-4.08117 -0.11971,-0.0446 -1.57477,1.20557 -3.23346,2.77813 -18.87894,17.89853 -40.71356,34.0411 -64.86134,47.95268 -41.12177,23.69031 -86.83078,39.60758 -138.2155,48.13085 -2.5133,0.41688 -4.63172,0.82006 -4.7076,0.89594 -0.0759,0.0759 0.33519,2.02799 0.91351,4.33801 1.62684,6.49815 2.69507,12.39744 3.65912,20.20733 0.40595,3.28865 0.45329,17.38691 0.59706,177.799993 0.14666,163.634057 0.18426,174.458917 0.61842,178.023757 1.296,10.64122 3.43098,18.35214 7.30042,26.36686 4.2402,8.78269 9.56331,15.63768 17.03124,21.9325 13.46407,11.34905 29.69312,18.98715 50.0658,23.56315 16.13353,3.62382 26.0764,7.26262 42.73021,15.63797 23.03133,11.58267 49.57903,28.7493 81.42761,52.65383 3.57463,2.683 6.55057,4.87818 6.61321,4.87818 0.0626,0 3.82369,-2.77699 8.35789,-6.17109 z m -17.2651,-29.95296 c -5.5311,-4.58854 -10.12914,-8.46026 -10.21787,-8.60382 -0.13489,-0.21827 -1.15367,-309.958123 -1.17545,-357.374175 l -0.007,-15.148925 21.89427,0.0677 21.89427,0.0677 0.1639,81.09479 c 0.0901,44.602135 0.24639,128.618778 0.34719,186.70365 l 0.18329,105.60886 -11.37282,7.96354 c -6.25506,4.37994 -11.43593,7.96353 -11.51306,7.96353 -0.0771,0 -4.66567,-3.75426 -10.19676,-8.3428 z m -55.98257,-30.84029 c -1.74625,-0.73294 -4.94775,-1.93072 -7.11443,-2.66175 -7.52069,-2.53744 -15.62523,-6.19317 -19.81027,-8.93587 -1.05319,-0.69021 -3.22457,-2.29729 -4.8253,-3.57129 -1.60073,-1.27401 -3.65456,-2.80718 -4.56406,-3.40705 l -1.65365,-1.09068 -0.004,-5.03712 c -0.002,-2.77041 -0.23851,-75.10539 -0.52476,-160.744398 -0.28626,-85.639009 -0.52246,-157.761122 -0.52488,-160.271352 l -0.004,-4.56406 h 21.96041 21.96042 l -0.004,2.71198 c -0.002,1.49159 -0.23857,73.137444 -0.52478,159.213015 -0.2862,86.075575 -0.52235,163.972215 -0.52477,173.103645 -0.003,13.10742 -0.074,16.60102 -0.33512,16.59507 -0.1819,-0.004 -1.75948,-0.60721 -3.50573,-1.34014 z m 131.09664,-9.30181 c -0.002,-5.85721 -0.23862,-81.07494 -0.52488,-167.150515 -0.28625,-86.075572 -0.5224,-160.400335 -0.52476,-165.166145 l -0.004,-8.6651 h 21.97677 l 21.97677,0 -0.16379,34.991143 c -0.17036,36.395268 -0.92701,270.102807 -0.92716,286.373847 l -9e-5,9.28896 -1.52135,0.94747 c -0.83675,0.52111 -2.89058,2.04169 -4.56407,3.37906 -1.67349,1.33737 -3.93567,3.02464 -5.02708,3.74949 -3.76778,2.50233 -14.43759,7.29691 -19.84375,8.91696 -1.09141,0.32706 -3.8541,1.35732 -6.13932,2.28948 -2.28522,0.93216 -4.27952,1.69483 -4.43177,1.69483 -0.18805,0 -0.27824,-3.41512 -0.28123,-10.64948 z M -789.117,207.29893 c -1.23693,-0.34615 -3.73724,-0.94236 -5.55625,-1.32492 -7.08971,-1.49106 -14.99062,-5.41556 -19.90353,-9.88639 -0.97876,-0.89069 -2.73997,-2.83294 -3.9138,-4.31611 -1.17382,-1.48317 -2.89988,-3.66198 -3.83568,-4.8418 -0.9358,-1.17982 -2.38928,-2.6618 -3.22995,-3.2933 -0.84068,-0.6315 -1.63765,-1.23981 -1.77105,-1.3518 -0.23298,-0.19558 -2.57347,-296.45698 -2.34542,-296.88528 0.0581,-0.10915 9.92129,-0.19844 21.91817,-0.19844 H -785.942 V 6.0715649 c 0,138.2572251 -0.2016,201.9378551 -0.63912,201.8888451 -0.15781,-0.0177 -1.29895,-0.31534 -2.53588,-0.66148 z m 285.74997,-62.87253 c -3e-5,-34.96138 -0.0793,-107.589499 -0.17627,-161.395826 l -0.17623,-97.829684 h 22.78253 c 12.53039,0 22.83672,0.0893 22.90295,0.19844 0.0839,0.13818 -2.10973,296.41964 -2.19769,296.83491 -0.004,0.0212 -0.57372,0.4029 -1.26494,0.84821 -1.69286,1.09058 -4.25334,3.76363 -7.17354,7.48894 -1.32964,1.69622 -3.2778,3.88051 -4.32923,4.85398 -5.19455,4.80935 -13.70413,8.98448 -21.52395,10.56048 -1.90275,0.38347 -4.56048,0.99186 -5.90608,1.35196 -1.34559,0.36011 -2.55701,0.65474 -2.69202,0.65474 -0.15025,0 -0.24551,-24.66107 -0.24553,-63.56615 z m -288.15571,-277.88272 c -9.46027,-1.29131 -17.31269,-4.85335 -24.31245,-11.02869 -7.66996,-6.7666 -12.66003,-15.33193 -14.56684,-25.00362 -1.07409,-5.44802 -1.00143,-13.40955 0.17449,-19.1171 3.2462,-15.75607 15.52629,-29.06568 31.17314,-33.78658 8.80508,-2.65663 20.08112,-2.426 28.73958,0.58781 6.80538,2.3688 12.7892,6.36562 18.0801,12.07638 2.61758,2.8253 4.69012,5.49935 4.59232,5.92515 -0.0623,0.27109 -11.93723,10.74844 -12.32793,10.877 -0.0961,0.0316 -0.73436,-0.8018 -1.41828,-1.85208 -3.43016,-5.26767 -8.82126,-9.50023 -14.61271,-11.47244 -5.95842,-2.02907 -13.6563,-2.02918 -19.61678,-2.6e-4 -6.64142,2.2607 -12.40452,7.14491 -15.81076,13.39956 -4.12901,7.58183 -4.60554,17.39751 -1.23741,25.48814 2.43493,5.84895 8.12798,11.86633 14.08174,14.88397 3.71515,1.88301 8.56499,3.01643 12.90711,3.01643 4.13318,0 9.17255,-1.13114 12.51669,-2.80952 3.99017,-2.0026 9.09249,-6.52422 11.67965,-10.35038 0.71339,-1.05503 1.3658,-1.91823 1.44981,-1.91823 0.23878,0 12.31018,10.57156 12.41419,10.87176 0.33959,0.98014 -8.17064,9.74579 -12.26167,12.62967 -9.15085,6.4507 -20.324,9.12818 -31.64399,7.58303 z m 75.95991,-57.88401 v -58.28498 l 3.50573,-1.88008 c 8.84685,-4.74447 17.79966,-10.28891 28.89863,-17.89684 7.81583,-5.35745 10.59301,-7.37974 21.98947,-16.01233 l 1.16867,-0.88525 v 76.62222 76.62223 h -8.20209 -8.20208 v -10.98305 -10.98305 l -11.31094,0.069 -11.31093,0.069 -0.0691,10.91407 -0.0691,10.91406 h -8.19914 -8.19915 z m 39.15833,-21.25063 c 0,-36.64209 -0.044,-41.15412 -0.40025,-41.01742 -0.22014,0.0845 -2.90681,1.77043 -5.97039,3.74657 -3.06357,1.97614 -7.85405,4.96577 -10.64551,6.64361 -2.79147,1.67784 -5.22448,3.17435 -5.4067,3.32558 -0.26221,0.21762 -0.33132,7.35029 -0.33132,34.19743 0,18.65736 0.0794,34.00184 0.17639,34.09886 0.097,0.097 5.2167,0.17639 11.37709,0.17639 h 11.20069 z m 165.3401,79.13464 c -11.37931,-1.55326 -21.1016,-6.75829 -28.5871,-15.30472 -7.87743,-8.9939 -11.35635,-18.92206 -10.99938,-31.39015 0.25359,-8.85763 2.51215,-16.40041 6.94909,-23.20755 7.08859,-10.87527 17.84737,-18.07443 30.14834,-20.17353 13.94795,-2.38015 27.17328,0.99738 37.34508,9.53732 3.50302,2.94102 9.20738,9.38657 9.0243,10.19686 -0.062,0.27435 -11.9308,10.74209 -12.32732,10.87212 -0.0965,0.0316 -0.76791,-0.86134 -1.4921,-1.98438 -1.53695,-2.38343 -5.08151,-6.03552 -7.57595,-7.80578 -8.54594,-6.06489 -20.41443,-6.92404 -29.86881,-2.16217 -5.6312,2.83626 -10.19488,7.47669 -12.96214,13.18016 -2.23697,4.6105 -3.11609,9.175 -2.83115,14.69965 0.70321,13.63407 11.05781,25.12707 24.45799,27.14693 5.93686,0.89489 12.26065,-0.001 17.08116,-2.42061 3.99017,-2.0026 9.09249,-6.52422 11.67965,-10.35038 0.71339,-1.05503 1.3658,-1.91823 1.44981,-1.91823 0.23878,0 12.31018,10.57156 12.41419,10.87176 0.33959,0.98014 -8.17065,9.74579 -12.26167,12.62967 -9.15085,6.4507 -20.324,9.12818 -31.64399,7.58303 z m -119.03801,-76.21424 v -76.35061 l 2.71197,2.29584 c 1.49159,1.26271 7.17683,6.3059 12.63386,11.20708 8.99012,8.0744 13.40434,11.97791 21.69031,19.18082 3.78412,3.2895 10.77224,10.28002 13.6638,13.66849 8.63594,10.12003 13.60539,19.06761 15.56904,28.03233 0.23906,1.09141 0.50378,3.6042 0.58826,5.58399 0.25323,5.93461 -0.73279,10.43119 -3.50883,16.00139 -3.11092,6.24216 -8.83671,12.59867 -16.35841,18.16033 -1.17872,0.87156 -2.17471,1.61371 -2.21332,1.64921 -0.0386,0.0355 3.02726,8.19208 6.81303,18.12572 3.78576,9.93365 6.8832,18.22652 6.8832,18.4286 0,0.30606 -1.45235,0.36742 -8.69555,0.36742 h -8.69555 l -5.61906,-14.61822 c -3.09048,-8.04003 -5.66115,-14.66261 -5.71262,-14.71686 -0.0515,-0.0542 -1.14059,0.15625 -2.42029,0.46777 -2.67367,0.65085 -7.127,1.34513 -8.67672,1.3527 -0.58208,0.003 -1.32622,0.077 -1.65364,0.16471 l -0.59532,0.15954 v 13.59518 13.59518 h -8.20208 -8.20208 z m 21.69583,31.45937 c 6.12588,-0.99475 10.66792,-3.16196 15.90349,-7.58826 5.81863,-4.91924 8.4473,-8.02163 10.57074,-12.4757 1.52251,-3.19359 2.23242,-6.16135 2.01831,-8.43757 -0.33247,-3.53444 -2.86857,-9.50608 -6.12361,-14.41895 -2.99455,-4.51972 -6.19152,-8.23856 -12.42507,-14.45332 -5.01216,-4.99706 -14.57454,-13.62245 -15.10227,-13.62245 -0.0733,0 -0.13326,16.14414 -0.13326,35.87587 v 35.87586 l 1.38907,-0.17366 c 0.76398,-0.0955 2.52015,-0.35733 3.9026,-0.58182 z m 125.39831,-80.60778 9.6431,-7.28385 0.67565,0.46869 c 0.37161,0.25778 5.12233,3.59124 10.55716,7.40767 5.43484,3.81644 9.9124,6.90097 9.95014,6.85452 0.0377,-0.0464 -1.8128,-5.56134 -4.11232,-12.25529 -2.29952,-6.69396 -4.09818,-12.24356 -3.99701,-12.33244 0.10116,-0.0889 4.74707,-3.58229 10.32425,-7.76315 5.57717,-4.18086 10.09714,-7.64474 10.04437,-7.69751 -0.0528,-0.0528 -5.27076,0.0142 -11.59553,0.14885 -6.32477,0.13463 -12.0979,0.24818 -12.82919,0.25233 l -1.32962,0.008 -4.20445,-12.15928 c -2.31245,-6.6876 -4.27907,-12.11316 -4.37027,-12.05679 -0.0912,0.0564 -1.82233,5.56967 -3.84695,12.25179 l -3.68113,12.1493 -4.75046,0.17207 c -2.61275,0.0946 -7.08286,0.18774 -9.93357,0.20689 -2.85071,0.0191 -6.52911,0.10844 -8.17423,0.19843 l -2.99113,0.16363 10.55331,7.36242 10.55332,7.36241 -3.79187,12.31151 c -2.08553,6.77133 -3.79188,12.36628 -3.79188,12.43321 0,0.17351 0.40453,-0.12548 11.09831,-8.20295 z m -355.99393,-0.6746 9.92932,-7.50801 1.39096,0.96069 c 0.76503,0.52838 5.49862,3.85821 10.51908,7.39962 5.02047,3.54141 9.16858,6.40756 9.21803,6.36922 0.0494,-0.0383 -1.78463,-5.55721 -4.07572,-12.26416 -2.29109,-6.70694 -4.11748,-12.23519 -4.05865,-12.28499 0.0588,-0.0498 4.75041,-3.57032 10.42572,-7.82337 l 10.31875,-7.73283 -11.50937,0.16029 c -6.33016,0.0882 -12.18154,0.22137 -13.00306,0.29603 l -1.49369,0.13574 -0.52885,-1.53137 c -5.33456,-15.44704 -7.77417,-22.42962 -7.94034,-22.72655 -0.12416,-0.22185 -1.64795,4.40136 -3.89863,11.82844 -2.03214,6.70594 -3.75461,12.29001 -3.8277,12.40903 -0.0731,0.11903 -5.96437,0.31664 -13.09175,0.43915 l -12.95886,0.22274 10.42122,7.27604 c 5.73167,4.00182 10.5346,7.35062 10.67319,7.44177 0.20897,0.13745 -6.92318,24.09268 -7.43419,24.96969 -0.22596,0.3878 0.088,0.15681 10.92454,-8.03717 z m 299.72379,-49.87289 7.61254,-5.75177 10.51142,7.39038 c 5.78128,4.0647 10.55349,7.3531 10.60492,7.30754 0.0514,-0.0456 -1.76594,-5.51638 -4.03859,-12.1574 -2.27265,-6.64101 -4.07382,-12.16885 -4.0026,-12.28409 0.0712,-0.11523 4.71133,-3.64372 10.31136,-7.84109 5.60003,-4.19736 10.14182,-7.67163 10.09286,-7.72059 -0.049,-0.049 -5.84382,0.0299 -12.87746,0.17532 -7.03365,0.14538 -12.82409,0.22869 -12.86765,0.18513 -0.0436,-0.0436 -1.8056,-5.06849 -3.91563,-11.1665 -2.11003,-6.09801 -4.03076,-11.61241 -4.26827,-12.25423 l -0.43185,-1.16694 -3.77097,12.41173 -3.77096,12.41174 -4.72375,0.16541 c -2.59806,0.091 -7.70031,0.1932 -11.33833,0.22715 -3.63802,0.034 -7.31229,0.13812 -8.16504,0.23146 l -1.55046,0.16973 10.414,7.25222 c 5.7277,3.98872 10.46314,7.29224 10.52321,7.34116 0.0601,0.0489 -1.57704,5.56232 -3.63802,12.25201 -2.06098,6.6897 -3.74723,12.2939 -3.74723,12.45379 0,0.15989 1.22039,-0.64779 2.71198,-1.79484 1.49159,-1.14706 6.13762,-4.67385 10.32452,-7.83732 z m -232.2438,0.26603 c 5.38427,-4.07414 9.97032,-7.41137 10.19122,-7.41605 0.2209,-0.005 5.02305,3.24164 10.67144,7.21407 5.64839,3.97242 10.31955,7.17283 10.38037,7.11201 0.0608,-0.0608 -1.75205,-5.55045 -4.02859,-12.19919 -2.27653,-6.64874 -4.09234,-12.12513 -4.03513,-12.16974 0.0572,-0.0446 4.50934,-3.39194 9.89361,-7.4385 5.38427,-4.04657 9.96818,-7.52734 10.18646,-7.73506 0.34402,-0.32737 -1.32559,-0.36657 -12.53749,-0.29434 l -12.93435,0.0833 -4.14168,-11.96076 c -2.27792,-6.57841 -4.20213,-12.0212 -4.27601,-12.09509 -0.0739,-0.0739 -1.53136,4.47502 -3.23884,10.10868 -1.70748,5.63365 -3.40142,11.21002 -3.7643,12.39194 l -0.6598,2.14893 -12.98499,0.23232 -12.98499,0.23231 10.41174,7.24847 c 5.72646,3.98665 10.51311,7.33842 10.63699,7.44837 0.12389,0.10994 -1.45369,5.66104 -3.50573,12.33576 -2.05203,6.67472 -3.73097,12.2299 -3.73097,12.34485 0,0.31646 -0.0239,0.33385 10.45104,-7.59231 z m 73.21266,-47.65834 c 7.02731,-5.31052 12.83646,-9.65576 12.90922,-9.65608 0.0728,-3.3e-4 6.02588,4.14799 13.22916,9.21847 7.20329,5.07049 13.1329,9.19119 13.17692,9.15712 0.044,-0.0341 -2.26887,-6.93142 -5.13975,-15.32747 -3.24539,-9.49132 -5.11738,-15.33235 -4.94907,-15.44218 1.13477,-0.74051 25.46951,-19.19995 25.40111,-19.26835 -0.0483,-0.0483 -7.26248,0.0505 -16.0315,0.2196 -12.57016,0.24239 -15.98608,0.23883 -16.14407,-0.0168 -0.11021,-0.17834 -2.49286,-6.95504 -5.29477,-15.05934 -2.80191,-8.10431 -5.17367,-14.82027 -5.27058,-14.92437 -0.0969,-0.10409 -1.95383,5.67044 -4.12651,12.8323 -2.17267,7.16185 -4.28537,14.10885 -4.69489,15.43776 l -0.74459,2.41621 -11.8375,0.18434 c -6.51063,0.10138 -13.76721,0.26424 -16.12574,0.36191 l -4.28823,0.17758 13.19651,9.20452 c 12.91527,9.00834 13.19205,9.2198 12.98711,9.92187 -0.39677,1.35922 -9.08204,29.5575 -9.20561,29.88768 -0.0681,0.1819 -0.0564,0.33072 0.026,0.33072 0.0824,0 5.89943,-4.34497 12.92674,-9.65549 z m 88.96831,-0.002 c 6.93617,-5.23875 12.76363,-9.51152 12.94991,-9.49504 0.18629,0.0165 6.13907,4.10671 13.2284,9.0894 7.08934,4.9827 12.94322,9.00592 13.00864,8.94051 0.0654,-0.0654 -2.2166,-6.93138 -5.07113,-15.25769 -2.85454,-8.32631 -5.14799,-15.17333 -5.09655,-15.21559 0.0514,-0.0423 5.84907,-4.38957 12.88363,-9.66069 7.03457,-5.27112 12.74027,-9.63371 12.67934,-9.69464 -0.0609,-0.0609 -7.28544,0.0276 -16.05446,0.19665 -11.68501,0.22532 -15.99048,0.22894 -16.11892,0.0136 -0.0964,-0.16163 -2.49696,-7.02072 -5.33462,-15.24243 -2.83765,-8.22171 -5.23725,-14.86617 -5.33243,-14.76547 -0.0952,0.1007 -2.24915,7.02918 -4.78659,15.39663 l -4.61352,15.21354 -10.69154,0.19974 c -5.88035,0.10985 -13.14503,0.28844 -16.14374,0.39687 l -5.45219,0.19714 13.08402,9.12813 c 7.19622,5.02047 13.12548,9.19504 13.17614,9.27683 0.0507,0.0818 -1.8677,6.51116 -4.26301,14.2875 -5.5133,17.89878 -5.16164,16.70524 -4.89256,16.60538 0.12648,-0.0469 5.90501,-4.37159 12.84118,-9.61034 z m 342.77633,683.19298 c 0,-1.80871 0.73689,-10.57337 1.33795,-15.91382 2.66168,-23.64912 7.41951,-45.39161 13.60475,-62.17134 6.76188,-18.34409 17.4729,-38.01985 30.39409,-55.83283 3.58303,-4.93952 7.3942,-9.68457 7.60405,-9.46734 0.92564,0.95819 1.64929,22.64421 1.05938,31.74726 -2.46453,38.03104 -15.46121,71.24329 -38.18378,97.57633 -4.33464,5.0234 -12.09121,12.59698 -15.08352,14.7277 l -0.73292,0.52188 z m 0.40674,-201.71746 c 2.16219,-26.9974 5.96479,-49.152383 11.86939,-69.154284 7.05199,-23.888668 21.81088,-49.4236553 39.94711,-69.11419 2.26958,-2.464091 2.40738,-2.567779 2.57577,-1.938147 0.81833,3.059848 1.14669,19.9492693 0.53583,27.560265 -1.76953,22.047023 -7.14217,42.814253 -16.08569,62.177083 -8.27732,17.920493 -20.3817,34.996733 -34.41494,48.550833 -2.26009,2.18292 -4.21781,3.96896 -4.35048,3.96896 -0.1386,0 -0.17135,-0.87225 -0.077,-2.05052 z m 1.30456,-202.47985 c 0.0828,-0.941786 0.39139,-4.510307 0.68573,-7.930046 1.73428,-20.149354 5.67336,-42.473414 10.43426,-59.134374 5.54478,-19.40414 13.91192,-37.32465 25.73536,-55.11931 4.57373,-6.8836 12.36102,-17.19173 14.28984,-18.9156 0.53134,-0.47489 0.54153,-0.46383 0.83561,0.90744 1.21,5.64206 2.00443,17.07952 1.78054,25.63476 -0.62346,23.82362 -6.02044,45.59198 -16.59618,66.93958 -3.4783,7.0211 -5.98717,11.40103 -10.15429,17.72709 -8.00341,12.149896 -16.7526,22.385487 -26.55274,31.063782 l -0.60869,0.539016 z m -90.51439,-1.226281 c -11.60696,-7.882371 -24.18542,-21.212999 -32.2104,-34.136509 -5.54167,-8.92437 -11.63297,-22.3497 -14.80372,-32.62767 -2.5545,-8.28043 -5.68472,-24.80375 -6.56614,-34.66042 -0.61264,-6.85099 -0.20883,-32.43205 0.53341,-33.79027 0.33287,-0.60912 11.37403,20.17882 17.54365,33.03062 9.41504,19.61226 13.57072,30.23525 23.63742,60.42319 5.45905,16.37056 13.98143,42.994794 13.76258,42.994794 -0.0441,0 -0.89761,-0.555181 -1.8968,-1.233735 z m 91.05333,-201.503239 c 0.0679,-0.61847 0.24991,-2.79136 0.40448,-4.82865 1.57394,-20.74603 6.08243,-46.56503 11.20382,-64.16146 5.80191,-19.93465 15.59059,-39.89574 28.60952,-58.34062 3.03938,-4.30611 8.04091,-10.78602 10.68879,-13.84826 l 0.76411,-0.88368 0.30089,1.40303 c 0.9896,4.61434 1.86982,15.24832 1.86982,22.58933 0,37.23097 -13.42327,73.37667 -38.46769,103.58437 -3.22515,3.89007 -14.63108,15.61042 -15.19164,15.61042 -0.20244,0 -0.26389,-0.37944 -0.1821,-1.12448 z"
         id="path26" /><path
         style="fill:#003f6e"
         d="m -684.87117,461.1573 c -6.29399,-0.16011 -14.0626,-0.58988 -23.54791,-1.30268 -27.57364,-2.07211 -47.57371,-5.21023 -75.93542,-11.91468 -23.24921,-5.4959 -44.1504,-12.52669 -68.79167,-23.14028 -13.39538,-5.76972 -26.22676,-12.28217 -42.03646,-21.33523 -30.71442,-17.58791 -64.83954,-44.61767 -89.4758,-70.87182 -22.24257,-23.70327 -41.23987,-48.33411 -56.20637,-72.87402 -16.6503,-27.30067 -29.0501,-52.37861 -41.0786,-83.07917 -13.895,-35.46437 -25.2037,-77.139363 -31.8056,-117.21041 -4.4165,-26.806914 -6.5857,-47.521258 -8.0625,-76.993749 -1.6729,-33.385305 -0.8694,-73.750702 2.0907,-105.039581 5.2528,-55.52316 16.3003,-109.75882 31.4471,-154.38437 11.6284,-34.25979 25.0763,-65.29471 39.7827,-91.81042 25.1358,-45.31981 52.98408,-82.07136 87.03969,-114.86681 9.19823,-8.85786 21.21848,-19.2555 31.22701,-27.01168 12.29988,-9.53187 14.71386,-11.29062 23.86723,-17.38882 14.66114,-9.76763 28.77595,-18.18218 41.04007,-24.46608 23.7412,-12.16453 45.04895,-20.95471 67.60184,-27.88808 34.80333,-10.69949 64.94415,-16.40805 100.67316,-19.06713 39.36237,-2.92948 70.57218,-1.62787 97.76354,4.07724 7.22106,1.51507 23.08976,5.35128 28.01057,6.77147 11.77036,3.39702 31.57556,10.70725 44.26253,16.33759 14.51513,6.44166 34.29792,15.86197 44.01128,20.95761 5.23421,2.74587 36.35779,18.14097 41.80417,20.67819 8.16539,3.80388 20.48741,9.2903 24.34167,10.8382 7.30622,2.93423 14.9367,5.80172 19.53884,7.34259 l 4.85447,1.62536 1.76011,-0.87035 c 1.57912,-0.78084 1.83345,-1.01998 2.47325,-2.32555 0.39222,-0.80036 1.09429,-2.64583 1.56016,-4.10104 0.46587,-1.45521 1.07704,-3.18161 1.35817,-3.83646 0.29449,-0.68597 0.51363,-1.80742 0.51702,-2.64583 0.021,-5.17612 3.51508,-14.24397 8.168,-21.19733 2.73054,-4.08055 2.82827,-4.18862 7.89422,-8.72943 l 5.12944,-4.59773 7.58704,-3.09922 7.58704,-3.09921 8.71477,-0.22419 8.71476,-0.2242 8.91851,3.45389 8.91851,3.45388 5.95303,6.48229 5.95304,6.48229 2.62944,5.68854 c 2.27807,4.92836 2.75709,6.21891 3.58465,9.6573 1.80896,7.51604 1.7801,6.91273 2.0168,42.15427 l 0.21383,31.83552 6.17721,6.26448 c 14.03923,14.23754 19.42776,21.93505 26.88931,38.41135 2.0647,4.55921 6.02902,14.25735 7.73299,18.91771 0.47887,1.30968 0.94919,2.47319 1.04516,2.58557 0.096,0.11238 1.16911,-1.43543 2.38473,-3.43958 4.48745,-7.39826 14.95432,-24.36258 16.60572,-26.91392 3.34427,-5.16678 8.60175,-11.7216 15.80624,-19.70662 4.93743,-5.47235 12.20944,-12.89269 12.42637,-12.67984 0.54765,0.53735 2.61947,18.86883 4.28677,37.92939 0.58147,6.6473 0.66669,26.24988 0.14321,32.94062 -2.02693,25.90689 -6.07645,41.28529 -16.23345,61.64792 -4.37794,8.77683 -10.9119,19.94738 -14.07159,24.05699 -3.84126,4.99608 -11.8919,13.51129 -32.11469,33.96789 -8.80313,8.90491 -16.42215,16.69361 -16.93115,17.30823 l -0.92547,1.11749 3.02356,4.04188 c 6.87181,9.1862 13.42749,19.01439 15.70868,23.55021 2.65782,5.28472 5.16686,12.15196 7.90441,21.63439 0.81923,2.83766 1.54602,5.32653 1.61511,5.53084 0.0702,0.20769 1.14943,-1.30877 2.44781,-3.43958 5.3937,-8.8518 17.24847,-26.81209 21.28924,-32.25376 5.19326,-6.99373 12.89132,-16.15903 20.62156,-24.55199 2.18401,-2.37125 4.0186,-4.2637 4.07686,-4.20544 0.11775,0.11775 2.56035,25.87175 3.81905,40.2668 0.97235,11.12025 1.32669,26.27301 0.79196,33.86667 -1.45729,20.69466 -6.825,41.28886 -15.03362,57.67917 -9.56192,19.09245 -24.75855,39.15289 -41.60608,54.92244 -6.90048,6.458958 -24.67165,23.360976 -25.07377,23.847467 -0.28175,0.340863 -0.15314,0.611414 0.80617,1.69595 5.61622,6.349345 11.7824,15.623465 16.0321,24.11274 3.42371,6.839261 5.5059,12.2841062 8.98643,23.4992294 1.30635,4.2093796 2.50502,7.9880036 2.66371,8.3969426 0.30345,0.781946 0.81869,0.747336 0.81869,-0.05499 0,-0.67107 2.31674,-5.3195239 4.254,-8.5355034 2.51102,-4.1684525 8.02396,-12.300051 11.54159,-17.0238626 5.35705,-7.193968 11.65343,-14.383017 26.25349,-29.975588 5.45424,-5.825018 6.79869,-7.129658 6.95274,-6.746875 0.58621,1.456647 3.86443,24.158137 4.59609,31.827672 1.08157,11.3374862 -0.53728,31.950971 -4.13494,52.652082 -3.46542,19.940147 -5.67669,27.524807 -11.61957,39.855073 -6.58119,13.654645 -14.55194,25.802625 -29.69632,45.259285 -6.7597,8.68449 -9.14444,11.00503 -27.99083,27.23724 -4.5839,3.94808 -8.84682,7.65611 -9.47314,8.24008 l -1.13877,1.06175 2.35349,3.13631 c 4.65665,6.20554 10.81742,15.27884 13.72721,20.21683 3.18311,5.40183 7.16123,15.8595 10.9412,28.76217 0.77862,2.65775 1.49832,4.74134 1.59935,4.6302 0.10102,-0.11113 1.58603,-2.70238 3.30003,-5.75832 6.8371,-12.1901 13.3051,-22.45547 18.23824,-28.94596 5.184,-6.82054 14.46871,-17.35832 23.34037,-26.49039 3.59865,-3.70427 3.91676,-3.96774 4.09792,-3.394 0.48977,1.55108 2.72142,17.58132 3.64107,26.15431 1.23242,11.48853 1.45228,15.4489 1.43214,25.79688 -0.0603,31.00049 -3.19321,48.54589 -12.92109,72.36354 -7.26029,17.77602 -15.76484,31.45017 -28.55043,45.90521 -11.31936,12.79736 -17.62322,18.94812 -26.61884,25.97239 -6.08046,4.74795 -17.83364,13.04213 -18.09472,12.76939 -0.0593,-0.0619 -0.42963,-4.10121 -0.82299,-8.97616 -0.39335,-4.87495 -0.75941,-8.90994 -0.81347,-8.96665 -0.0541,-0.0567 -1.2326,0.46741 -2.61897,1.16471 l -2.52068,1.26781 v 20.67441 c 0,17.19864 -0.0694,21.20634 -0.41261,23.83842 -1.57765,12.09788 -5.46059,20.80248 -13.06925,29.29798 -7.72858,8.62941 -18.71458,13.94373 -31.26543,15.12421 -2.41908,0.22753 -4.99839,0.41369 -5.73179,0.41369 -0.7334,0 -4.41062,-0.58341 -8.1716,-1.29646 l -6.83813,-1.29646 -6.04022,-3.53219 c -5.94337,-3.47554 -6.10081,-3.59036 -9.81856,-7.16092 -7.17216,-6.88818 -10.96968,-13.23001 -15.75055,-26.3033 -1.62381,-4.4403 -1.7526,-4.73652 -4.17409,-9.60055 -3.26217,-6.5527 -5.93832,-10.80371 -8.38408,-13.31793 -1.11916,-1.15048 -1.32806,-1.25651 -2.4701,-1.25364 -2.29381,0.006 -6.08432,1.18187 -10.24338,3.17832 -2.18282,1.0478 -4.27732,2.12452 -4.65446,2.39271 -0.37714,0.26819 -1.4487,0.88706 -2.38125,1.37526 -0.93255,0.4882 -4.73833,2.90453 -8.45729,5.36963 -3.71895,2.46509 -7.57179,5.00392 -8.56186,5.64182 -0.99007,0.63791 -2.76932,1.89871 -3.95389,2.80178 -1.18456,0.90307 -3.82063,2.69452 -5.85792,3.98101 -2.03729,1.28649 -5.43058,3.46822 -7.54063,4.84827 -10.07626,6.59029 -19.29072,11.2239 -53.42681,26.86637 -9.257,4.24192 -24.12573,10.12604 -34.41486,13.61927 -17.01963,5.77829 -37.71796,11.79355 -48.324,14.0437 -8.81184,1.86951 -32.60678,5.49379 -40.84058,6.22056 -14.70493,1.29796 -35.53511,1.86255 -52.65209,1.42709 z m 25.10296,-20.59508 c 2.96533,-0.13855 6.89439,-0.37597 8.73125,-0.52759 1.83687,-0.15162 6.16799,-0.45289 9.62472,-0.6695 10.84346,-0.67947 24.00969,-2.31357 34.06399,-4.22779 1.81901,-0.34631 4.37886,-0.82089 5.68854,-1.0546 7.36968,-1.31511 24.42599,-5.67581 35.32188,-9.03055 9.43707,-2.90558 28.92541,-9.73417 33.86098,-11.86466 1.2338,-0.53259 3.49599,-1.45472 5.02709,-2.04919 1.53109,-0.59447 3.97443,-1.6144 5.42964,-2.26651 1.45521,-0.65211 4.25318,-1.87116 6.21771,-2.709 12.79138,-5.45529 40.59995,-18.89378 44.30445,-21.41012 0.58938,-0.40034 2.38128,-1.47651 3.98201,-2.39149 1.60073,-0.91498 5.64885,-3.52696 8.99583,-5.8044 9.72605,-6.61805 11.38774,-7.73689 13.9867,-9.4174 1.35032,-0.87312 3.22055,-2.13093 4.15609,-2.79512 4.10991,-2.9179 12.56725,-7.90195 17.47913,-10.30076 8.35601,-4.0808 12.75508,-5.29525 19.14683,-5.28587 4.25232,0.006 7.13795,0.64674 10.59119,2.35082 3.00067,1.48074 4.31256,2.5458 7.37436,5.98688 4.60375,5.17404 11.72999,17.93082 14.8485,26.58051 1.53536,4.25858 2.23029,6.08879 2.57735,6.7879 0.20552,0.414 0.65549,1.52663 0.99994,2.47252 1.23512,3.39172 4.09682,7.59239 7.62651,11.19489 1.81936,1.85689 3.0099,2.76948 5.84986,4.4841 l 3.56562,2.15274 4.11862,0.68995 c 3.8966,0.65275 4.2963,0.67324 7.41459,0.38003 8.84913,-0.83208 16.184,-4.94743 21.05164,-11.81138 2.32782,-3.2825 3.7492,-6.78425 4.91854,-12.11742 l 0.60912,-2.77812 V 252.31026 c 0,-106.49079 -0.0665,-133.05686 -0.33564,-134.01146 -0.25935,-0.92 -0.5217,-19.713387 -1.15421,-82.68229 -0.45021,-44.8204156 -0.86023,-81.536783 -0.91115,-81.591926 -0.16509,-0.178782 -3.89107,1.695724 -6.12396,3.080906 -3.36063,2.084778 -6.2767,4.397653 -9.57059,7.590906 -4.90734,4.757401 -8.16149,8.92079 -12.17436,15.575979 -7.67792,12.7335346 -11.41145,22.6872412 -13.76972,36.710421 -2.21822,13.190459 -2.33191,20.984126 -0.51469,35.28445 1.71684,13.510436 3.27355,21.325993 6.0188,30.21771 1.81678,5.884464 1.82353,5.469219 -0.0929,5.712126 -2.13145,0.270154 -6.92501,2.222612 -9.92908,4.044197 -1.34621,0.81631 -2.53252,1.387494 -2.63623,1.269298 -0.10372,-0.118195 -1.0568,-2.715213 -2.11796,-5.771151 -5.87999,-16.933195 -13.36064,-35.867689 -19.33837,-48.947916 -3.08956,-6.760469 -8.91892,-18.258293 -12.74357,-25.135416 -3.36345,-6.0478438 -10.85705,-19.0820125 -12.37034,-21.5166471 l -0.71091,-1.1437308 -0.17505,5.3770641 c -0.27919,8.5754563 0.27096,24.0543208 1.15499,32.4968558 1.13051,10.796325 4.82723,27.329286 8.10493,36.247916 4.01833,10.933881 13.59212,25.514351 26.59418,40.501778 0.70413,0.81165 1.28024,1.60286 1.28024,1.75823 0,0.15537 -0.37275,1.15817 -0.82833,2.22843 -1.11404,2.61714 -2.87454,10.34015 -2.87547,12.61422 -9.6e-4,2.32386 -5.77848,22.28649 -10.19816,35.23692 -7.32411,21.46094 -17.84282,45.33749 -27.06699,61.43971 -9.80567,17.11733 -15.6328,25.84184 -27.53007,41.21863 -13.72131,17.73429 -33.85704,37.42809 -50.56348,49.45374 -14.4349,10.39055 -24.67693,16.60688 -39.81979,24.16833 -13.46938,6.72581 -35.45065,14.56269 -50.9323,18.15864 -13.97243,3.24541 -21.89103,4.55352 -34.52812,5.70386 -3.92906,0.35766 -8.81063,0.80373 -10.84792,0.99125 -4.81231,0.44297 -20.77581,0.44776 -28.17812,0.008 -11.22591,-0.66622 -20.66292,-1.76564 -28.7073,-3.34444 -21.46792,-4.21331 -39.759,-10.62993 -62.44167,-21.90489 -3.9105,-1.94381 -15.01471,-8.70872 -22.48958,-13.70113 -23.10274,-15.43011 -50.14182,-41.74967 -69.24512,-67.40247 -16.8677,-22.65073 -30.02127,-45.01677 -44.85406,-76.26884 -11.29984,-23.80831 -23.40075,-58.35296 -30.72439,-87.709377 -9.81524,-39.343847 -15.44998,-76.032213 -17.41241,-113.373957 -0.56688,-10.786697 -0.64439,-45.023805 -0.12819,-56.620832 1.85949,-41.775594 4.17911,-64.239924 10.35441,-100.277084 3.4268,-19.99776 8.26829,-42.32089 12.4809,-57.54687 7.07143,-25.55882 10.65682,-36.86136 17.41572,-54.90104 18.4647,-49.28279 42.9366,-91.06441 72.54644,-123.86075 18.25045,-20.21449 42.64738,-39.39281 64.66524,-50.83306 17.53423,-9.11059 30.32027,-14.15394 46.68167,-18.41319 18.47582,-4.80968 34.19749,-7.06023 53.975,-7.72648 39.837,-1.34201 76.89781,4.08242 113.06813,16.5493 13.04755,4.49712 32.93825,13.8488 44.35896,20.85553 16.99053,10.42386 27.73372,18.48493 39.95208,29.97773 13.59268,12.78551 20.89272,20.96215 31.38897,35.15821 13.81364,18.68278 25.31542,39.77489 35.32698,64.78305 8.77707,21.92451 16.66853,51.08127 20.74224,76.63674 0.52193,3.27422 1.05449,6.8745 1.18346,8.00063 0.53285,4.65263 3.32991,10.8237 6.81103,15.02698 1.62071,1.95693 2.76563,3.00202 5.23532,4.77883 2.85183,2.05173 3.5329,2.40752 6.96407,3.63802 3.55451,1.27472 3.96526,1.36387 6.28385,1.36387 1.36441,0 2.48075,0.0574 2.48075,0.12763 0,0.0702 -0.49375,0.9334 -1.09721,1.91823 -5.17831,8.45072 -9.31989,20.06515 -11.19389,31.39158 -0.98176,5.93373 -1.21399,8.60313 -1.38388,15.90735 -0.24492,10.5297 0.5538,22.88104 2.18836,33.8408 4.28344,28.72067 15.3122,53.750326 30.74404,69.773319 2.79081,2.897721 6.5709,6.257599 6.77952,6.025883 0.20464,-0.227291 2.25187,-187.352772 2.26908,-207.403542 0.053,-61.74173 -0.54341,-248.88244 -0.80401,-252.2802 -0.33436,-4.3595 -1.01924,-7.05739 -2.98021,-11.73972 -1.34837,-3.2196 -1.42584,-3.33397 -4.74374,-7.00375 l -3.37299,-3.7307 -4.96139,-1.7804 -4.96139,-1.7804 -4.6302,-0.0212 -4.63021,-0.0212 -4.36563,1.88092 c -4.28451,1.84597 -4.41724,1.92778 -7.14375,4.40364 -5.03433,4.57153 -8.22399,10.59397 -9.78217,18.46983 -1.49786,7.57096 -3.13951,12.51543 -6.10532,18.38854 -0.69811,1.38245 -1.54644,2.78355 -1.88517,3.11356 -1.81299,1.76628 -4.91379,3.99201 -8.15651,5.85468 -0.7837,0.45018 -2.55668,1.18161 -5.02708,2.07389 -2.13184,0.77001 -2.97559,0.92964 -5.55625,1.0512 -3.01793,0.14217 -3.0718,0.13421 -6.61458,-0.97724 -8.63382,-2.7086 -28.20135,-10.31472 -39.15834,-15.22126 -10.44034,-4.6752 -34.77465,-16.55816 -50.66771,-24.74212 -13.15933,-6.77626 -20.40116,-10.41583 -24.20937,-12.16706 -1.81901,-0.83648 -6.87917,-3.21313 -11.24479,-5.28145 -19.88506,-9.421 -42.90887,-17.93599 -61.87197,-22.88236 -11.02101,-2.87475 -24.21411,-5.44203 -35.36241,-6.88128 -21.06596,-2.71961 -42.92007,-2.94844 -74.6125,-0.78124 -12.284,0.84001 -14.34291,1.05327 -25.53229,2.6445 -26.40934,3.75566 -45.9906,8.05864 -69.9823,15.3786 -10.24771,3.12662 -13.2316,4.16724 -23.01875,8.02776 -31.40848,12.389 -55.90779,25.13931 -80.9625,42.13577 -24.93566,16.9157 -45.10114,34.21791 -68.52194,58.79259 -13.72202,14.39807 -31.04086,36.01151 -42.82494,53.44438 -16.3311,24.15947 -33.5827,55.80164 -44.9445,82.43547 -19.6845,46.14324 -33.0616,92.44854 -41.3348,143.08136 -4.4788,27.41083 -6.9931,50.85586 -8.5168,79.416914 -0.7831,14.678989 -0.8121,16.045584 -0.8252,38.893749 -0.013,22.202595 0.031,24.53871 0.6964,37.438542 1.3538,26.2362627 4.1065,51.833708 7.867,73.15729 6.2758,35.585664 13.5791,65.049465 22.4953,90.752085 11.0889,31.96568 21.4955,55.71906 36.2821,82.81458 16.8682,30.90993 41.38091,64.58606 64.73961,88.94088 25.63693,26.73019 53.05423,48.31297 85.75943,67.50945 18.05337,10.59652 40.31927,21.08991 60.16897,28.35622 16.31573,5.97264 29.83111,10.09748 43.8138,13.3718 35.0347,8.20405 59.30335,11.40509 96.15078,12.68229 16.65585,0.57733 17.76175,0.5899 24.4415,0.27778 z m -23.02211,-20.63908 c -56.92334,-1.52714 -108.80875,-12.73268 -156.37712,-33.77231 -6.8648,-3.03632 -20.69944,-9.84807 -26.81102,-13.2009 -45.41121,-24.91281 -84.51226,-58.69543 -116.97053,-101.06051 -54.47431,-71.10076 -87.94371,-164.18326 -96.80031,-269.2135341 -3.8713,-45.9103689 -2.7997,-96.9804089 3.037,-144.7270859 13.4996,-110.4327 52.686,-207.20609 113.08362,-279.2677 41.99694,-50.10737 93.82026,-87.77217 152.54673,-110.86982 38.90772,-15.30275 80.49439,-24.2846 124.88787,-26.97314 19.1975,-1.16264 37.47874,-1.06518 52.3875,0.27928 31.92408,2.87888 62.11581,11.35454 97.49896,27.37068 10.35305,4.68629 22.52706,10.67853 50.53542,24.87433 28.92697,14.66139 47.50946,23.07262 67.07187,30.35959 7.89325,2.94023 18.19572,6.34372 20.17487,6.66491 2.77689,0.45065 8.53723,0.33033 11.92659,-0.24911 6.93715,-1.18596 14.65983,-4.47118 21.07979,-8.96731 6.60447,-4.62534 9.7354,-8.14312 12.94598,-14.54555 3.05719,-6.09652 6.13855,-15.39109 7.55773,-22.79698 0.97217,-5.0732 2.07231,-7.07274 4.43446,-8.0597 1.39934,-0.58469 2.86732,-0.51431 3.92844,0.18834 1.18677,0.78585 2.27257,3.02069 2.60312,5.35782 0.39462,2.7902 0.91347,271.50263 0.52821,273.56478 -0.53569,2.8674 -1.99959,5.08519 -3.87746,5.87431 -0.47177,0.19825 -1.78013,0.35778 -2.9343,0.35778 -1.79375,0 -2.30768,-0.11233 -3.70206,-0.80911 -3.23759,-1.61784 -4.03037,-3.28902 -5.24571,-11.05798 -8.77631,-56.10156 -26.31955,-103.43689 -53.35852,-143.97249 -16.23794,-24.34319 -36.08122,-45.78312 -58.32753,-63.02078 -43.07949,-33.38033 -95.59464,-52.58914 -156.43569,-57.2205 -9.63847,-0.7337 -17.04273,-0.99529 -28.17813,-0.9955 -18.72861,-3.5e-4 -32.77617,1.19193 -49.2125,4.17687 -60.53435,10.99344 -112.4082,43.22035 -154.38616,95.91321 -22.83517,28.66387 -42.60335,63.55595 -58.67465,103.5644 -23.32664,58.07016 -38.72054,128.04555 -43.97444,199.89271 -1.58609,21.689789 -1.98085,32.992768 -1.98673,56.885413 -0.006,23.673165 0.34712,32.902504 1.99326,52.1229164 5.28029,61.6529876 20.27641,122.8462806 43.18288,176.2125006 4.47572,10.42727 6.2914,14.34454 11.71175,25.2677 5.53293,11.15007 8.89506,17.43759 14.07732,26.32605 19.52951,33.49641 41.38602,61.41981 66.35241,84.77038 19.21108,17.96773 39.78722,32.6015 61.64394,43.84121 44.70771,22.99071 92.31531,30.95597 145.91771,24.41359 51.7742,-6.31925 100.28921,-27.28828 140.34098,-60.65784 7.25203,-6.04209 10.85075,-9.36252 19.22118,-17.73472 7.62774,-7.62937 11.42093,-11.69844 16.6673,-17.8795 32.15245,-37.88073 56.57644,-85.64257 71.77669,-140.36146 2.6548,-9.55693 3.59316,-13.51276 3.88884,-16.39408 0.14915,-1.45345 0.49369,-3.51262 0.76565,-4.57595 2.12664,-8.31509 6.5101,-12.02873 13.55689,-11.48532 5.29063,0.40798 8.04001,3.43704 9.46454,10.42734 l 0.54767,2.68746 8.4e-4,131.3198 c 7.4e-4,116.06518 -0.0453,131.47262 -0.39669,132.63538 -1.22722,4.06145 -3.88272,6.20469 -7.69287,6.20889 -2.65576,0.003 -5.40417,-2.08677 -7.17872,-5.45821 -0.44922,-0.85347 -1.4407,-3.27817 -2.2033,-5.38823 -4.17192,-11.54349 -10.45973,-24.03467 -16.0489,-31.88229 -8.18125,-11.48707 -16.03717,-17.00681 -28.2653,-19.85978 -3.9856,-0.92988 -11.00552,-1.17018 -15.5543,-0.53243 -7.15181,1.00269 -13.68056,3.18007 -22.28112,7.43087 -8.28903,4.09683 -13.72934,7.46751 -31.95306,19.79734 -13.55618,9.17185 -18.29363,12.0184 -28.37194,17.04762 -71.65696,35.75784 -124.696,48.91205 -190.13895,47.15635 z m 54.67228,-81.89858 c 3.20146,-0.21068 8.08302,-0.61738 10.84792,-0.9038 22.66394,-2.34774 49.19872,-9.48901 68.65937,-18.47819 13.87164,-6.40753 19.12485,-9.19868 27.91355,-14.8311 15.41295,-9.87771 18.9494,-12.56112 32.27622,-24.49072 16.9518,-15.17453 32.53848,-33.257 44.49247,-51.61674 9.6194,-14.77413 14.38887,-23.34613 21.71414,-39.02604 7.3692,-15.77396 13.31896,-31.46844 19.10778,-50.40313 2.54958,-8.33945 5.31051,-18.47843 5.30471,-19.48051 -0.007,-1.15281 1.37213,-8.01047 2.0149,-10.02143 0.79363,-2.4829 0.79058,-2.6723 -0.0557,-3.45871 -2.03383,-1.88994 -6.70301,-8.743665 -10.17566,-14.936465 -8.94212,-15.946587 -17.29982,-42.944551 -19.40949,-62.698714 -1.40638,-13.168755 -1.20379,-33.486994 0.52498,-52.652083 0.82408,-9.135687 2.67105,-24.190505 3.01215,-24.552355 0.66028,-0.700425 15.02649,16.064441 23.98697,27.991938 7.82968,10.422273 17.57096,24.9207619 25.10986,37.372396 0.9912,1.637109 1.88598,2.976562 1.9884,2.976562 0.10242,0 0.26493,-0.76822 0.36113,-1.707155 0.28276,-2.759869 1.70404,-11.0847055 2.55843,-14.9853939 2.23762,-10.2157736 4.74791,-16.5405631 9.44165,-23.7887001 3.08982,-4.771334 9.23326,-12.519469 14.45879,-18.235503 1.25339,-1.371037 2.27889,-2.585707 2.27889,-2.699268 0,-0.113561 -0.56555,-0.589333 -1.25678,-1.057272 -3.76721,-2.550297 -11.28424,-8.515005 -16.99948,-13.488965 -27.41877,-23.862502 -47.54616,-52.270952 -55.6558,-78.554412 -7.12001,-23.07603 -9.28579,-57.65409 -6.12338,-97.76354 0.45501,-5.77098 1.71246,-17.93964 1.8702,-18.09835 0.19128,-0.19245 12.11101,11.92733 15.47646,15.73621 12.29623,13.91636 23.78339,30.19987 29.41708,41.69989 0.61865,1.26285 1.20023,2.30464 1.29241,2.31511 0.18334,0.0208 7.76551,-11.48249 8.03711,-12.19351 0.12935,-0.33863 -0.84667,-1.16493 -4.28317,-3.62617 -4.4219,-3.16699 -4.47271,-3.21489 -7.85289,-7.40367 -2.74856,-3.40607 -3.78107,-4.93867 -5.37424,-7.97722 -2.16209,-4.12362 -4.05297,-8.94555 -4.87694,-12.43666 -0.29194,-1.23693 -1.17568,-6.11849 -1.96386,-10.84792 -2.34781,-14.08792 -4.66568,-24.85201 -8.46058,-39.29062 -6.14965,-23.39786 -14.66799,-44.84988 -26.78821,-67.46161 -11.2169,-20.92651 -29.06625,-44.06355 -46.10377,-59.76159 -14.53386,-13.39122 -26.50714,-21.86929 -46.35117,-32.82048 -8.66748,-4.78326 -18.45373,-9.11047 -31.2257,-13.80712 -16.81571,-6.18366 -41.67972,-11.7365 -61.46168,-13.72614 -29.1875,-2.93563 -52.92759,-2.33316 -78.10557,1.98215 -28.31937,4.85372 -57.52027,17.56908 -83.14051,36.20306 -10.18015,7.40417 -23.34229,19.38781 -33.71185,30.69338 -13.23236,14.42679 -27.05081,33.5174 -38.3266,52.94939 -14.87264,25.63056 -25.44426,49.21993 -36.04636,80.43333 -11.09185,32.65527 -20.76631,74.25569 -26.05824,112.05104 -5.27586,37.6806 -7.22661,65.934712 -7.22486,104.64271 6.8e-4,15.061392 0.095,19.8229 0.55804,28.178125 1.99636,36.0208858 8.109,76.302521 16.46148,108.479165 5.83602,22.4824 15.37534,51.19177 22.86327,68.80892 13.30457,31.30218 22.32697,48.21944 40.16383,75.30838 7.33677,11.14238 18.98867,26.08559 27.91442,35.79936 19.0268,20.70664 36.71567,35.36001 57.86337,47.93374 15.9424,9.47883 35.8478,17.83263 51.94475,21.79992 22.56592,5.56163 43.95776,7.45053 67.11775,5.92648 z m -23.47968,-40.45394 c -31.84858,-23.90453 -58.39628,-41.07116 -81.42761,-52.65383 -16.65381,-8.37535 -26.59668,-12.01415 -42.73021,-15.63797 -20.37268,-4.576 -36.60173,-12.2141 -50.0658,-23.56315 -7.46793,-6.29482 -12.79104,-13.14981 -17.03124,-21.9325 -3.86944,-8.01472 -6.00442,-15.72564 -7.30042,-26.36686 -0.43416,-3.56484 -0.47176,-14.3897 -0.61842,-178.023757 -0.14377,-160.413083 -0.19111,-174.511343 -0.59706,-177.799993 -0.96405,-7.80989 -2.03228,-13.70918 -3.65912,-20.20733 -0.57832,-2.31002 -0.9894,-4.26212 -0.91351,-4.33801 0.0759,-0.0759 2.1943,-0.47906 4.7076,-0.89594 51.38472,-8.52327 97.09373,-24.44054 138.2155,-48.13085 24.14778,-13.91158 45.9824,-30.05415 64.86134,-47.95268 1.65869,-1.57256 3.11375,-2.82271 3.23346,-2.77813 0.11971,0.0446 2.16391,1.88111 4.54267,4.08117 54.04516,49.9853 120.09262,81.34066 198.92605,94.43813 4.14734,0.68904 7.56843,1.27356 7.60241,1.29893 0.034,0.0254 -0.23373,1.10973 -0.59491,2.40969 -2.29805,8.27093 -4.00129,18.85793 -4.6156,28.6896 -0.18246,2.92009 -0.27318,60.39538 -0.27401,173.57992 -8.3e-4,115.289193 -0.0894,170.34835 -0.27792,172.77291 -0.89356,11.49248 -3.38295,21.11539 -7.76522,30.01695 -3.85966,7.84004 -7.54692,12.89356 -13.17032,18.05042 -7.84796,7.19687 -15.51722,12.47754 -24.66804,16.98517 -9.46848,4.66411 -21.76018,8.66776 -32.48432,10.5808 -14.14124,2.5226 -31.46955,9.79436 -53.5302,22.46375 -22.29214,12.80232 -40.02945,24.63388 -65.394,43.62065 -4.5342,3.3941 -8.29525,6.17109 -8.35789,6.17109 -0.0626,0 -3.03858,-2.19518 -6.61321,-4.87818 z m 19.41582,-30.8666 11.37282,-7.96354 -0.18329,-105.60886 c -0.1008,-58.084872 -0.25704,-142.101515 -0.34719,-186.70365 l -0.1639,-81.09479 -21.89427,-0.0677 -21.89427,-0.0677 0.007,15.148925 c 0.0218,47.416052 1.04056,357.155905 1.17545,357.374175 0.20198,0.3268 20.22293,16.94662 20.41463,16.94662 0.0771,0 5.258,-3.58359 11.51306,-7.96353 z m -73.85154,-46.47449 c 0.002,-9.13143 0.23857,-87.02807 0.52477,-173.103645 0.28621,-86.075571 0.52236,-157.721425 0.52478,-159.213015 l 0.004,-2.71198 h -21.96042 -21.96041 l 0.004,4.56406 c 0.002,2.51023 0.23862,74.632343 0.52488,160.271352 0.28625,85.639008 0.5224,157.973988 0.52476,160.744398 l 0.004,5.03712 1.65365,1.09068 c 0.9095,0.59987 2.96333,2.13304 4.56406,3.40705 1.60073,1.274 3.77211,2.88108 4.8253,3.57129 4.18504,2.7427 12.28958,6.39843 19.81027,8.93587 2.16668,0.73103 5.36818,1.92881 7.11443,2.66175 1.74625,0.73293 3.32383,1.33599 3.50573,1.34014 0.2611,0.006 0.33165,-3.48765 0.33512,-16.59507 z m 131.96879,14.90777 c 2.28522,-0.93216 5.04791,-1.96242 6.13932,-2.28948 5.40616,-1.62005 16.07597,-6.41463 19.84375,-8.91696 1.09141,-0.72485 3.35359,-2.41212 5.02708,-3.74949 1.67349,-1.33737 3.72732,-2.85795 4.56407,-3.37906 l 1.52135,-0.94747 9e-5,-9.28896 c 1.5e-4,-16.27104 0.7568,-249.978579 0.92716,-286.373847 l 0.16379,-34.991143 -21.97677,0 h -21.97677 l 0.004,8.6651 c 0.002,4.76581 0.23851,79.090573 0.52476,165.166145 0.28626,86.075575 0.52246,161.293305 0.52488,167.150515 0.003,7.23436 0.0932,10.64948 0.28123,10.64948 0.15225,0 2.14655,-0.76267 4.43177,-1.69483 z M -786.1181,167.4674 c 0.0969,-22.28884 0.1761,-94.916963 0.1761,-161.3958351 V -114.79911 h -21.81251 c -11.99688,0 -21.86006,0.0893 -21.91817,0.19844 -0.22805,0.4283 2.11244,296.6897 2.34542,296.88528 0.1334,0.11199 0.93037,0.7203 1.77105,1.3518 0.84067,0.6315 2.29415,2.11348 3.22995,3.2933 0.9358,1.17982 2.66186,3.35863 3.83568,4.8418 1.17383,1.48317 2.93504,3.42542 3.9138,4.31611 4.91291,4.47083 12.81382,8.39533 19.90353,9.88639 1.81901,0.38256 4.31932,0.97877 5.55625,1.32492 1.23693,0.34614 2.37807,0.64381 2.53588,0.66148 0.20438,0.0229 0.33757,-11.62575 0.46302,-40.49301 z m 285.68862,39.87041 c 1.3456,-0.3601 4.00333,-0.96849 5.90608,-1.35196 7.81982,-1.576 16.3294,-5.75113 21.52395,-10.56048 1.05143,-0.97347 2.99959,-3.15776 4.32923,-4.85398 2.9202,-3.72531 5.48068,-6.39836 7.17354,-7.48894 0.69122,-0.44531 1.26045,-0.827 1.26494,-0.84821 0.088,-0.41527 2.28156,-296.69673 2.19769,-296.83491 -0.0662,-0.10915 -10.37256,-0.19844 -22.90295,-0.19844 h -22.78253 l 0.17623,97.829684 c 0.0969,53.806327 0.17624,126.434446 0.17627,161.395826 2e-5,38.90508 0.0953,63.56615 0.24553,63.56615 0.13501,0 1.34643,-0.29463 2.69202,-0.65474 z m -278.80841,-340.78998 c 7.21494,-0.9458 13.34703,-3.34907 19.35914,-7.58718 4.09103,-2.88388 12.60126,-11.64953 12.26167,-12.62967 -0.10401,-0.3002 -12.17541,-10.87176 -12.41419,-10.87176 -0.084,0 -0.73642,0.8632 -1.44981,1.91823 -2.58716,3.82616 -7.68948,8.34778 -11.67965,10.35038 -7.48577,3.75699 -17.76819,3.67331 -25.4238,-0.20691 -5.95376,-3.01764 -11.64681,-9.03502 -14.08174,-14.88397 -2.85763,-6.86436 -2.95272,-15.44237 -0.24789,-22.36415 2.4614,-6.29886 7.63958,-11.96357 13.74299,-15.03427 6.76841,-3.40526 15.83225,-3.98775 23.16985,-1.48902 5.79145,1.97221 11.18255,6.20477 14.61271,11.47244 0.68392,1.05028 1.32214,1.88371 1.41828,1.85208 0.3907,-0.12856 12.26566,-10.60591 12.32793,-10.877 0.18467,-0.80399 -5.53061,-7.25878 -9.02431,-10.19198 -5.53906,-4.65043 -12.20538,-7.91694 -18.91745,-9.26958 -11.36241,-2.2898 -23.08447,-0.60295 -32.41877,4.66518 -11.3651,6.41428 -19.67799,17.63309 -22.22461,29.99362 -1.17592,5.70755 -1.24858,13.66908 -0.17449,19.1171 3.34471,16.96498 16.7638,30.95661 33.58762,35.02068 5.79873,1.40078 11.93452,1.75538 17.57652,1.01578 z m 80.14243,-10.51725 0.0691,-10.91407 11.31093,-0.069 11.31094,-0.069 v 10.98305 10.98305 h 8.20208 8.20209 v -76.62223 -76.62222 l -1.16867,0.88525 c -11.39646,8.63259 -14.17364,10.65488 -21.98947,16.01233 -11.09897,7.60793 -20.05178,13.15237 -28.89863,17.89684 l -3.50573,1.88008 v 58.28498 58.28497 h 8.19915 8.19914 z m 0.11318,-27.62691 c -0.097,-0.097 -0.17639,-15.4415 -0.17639,-34.09886 0,-26.84714 0.0691,-33.97981 0.33132,-34.19743 0.18222,-0.15123 2.61523,-1.64774 5.4067,-3.32558 2.79146,-1.67784 7.58194,-4.66747 10.64551,-6.64361 3.06358,-1.97614 5.75025,-3.6621 5.97039,-3.74657 0.35622,-0.1367 0.40025,4.37533 0.40025,41.01742 v 41.17102 h -11.20069 c -6.16039,0 -11.28007,-0.0794 -11.37709,-0.17639 z m 200.20273,38.14416 c 7.21494,-0.9458 13.34703,-3.34907 19.35914,-7.58718 4.09102,-2.88388 12.60126,-11.64953 12.26167,-12.62967 -0.10401,-0.3002 -12.17541,-10.87176 -12.41419,-10.87176 -0.084,0 -0.73642,0.8632 -1.44981,1.91823 -2.58716,3.82616 -7.68948,8.34778 -11.67965,10.35038 -7.42429,3.72614 -17.74442,3.67066 -25.2943,-0.13596 -7.55052,-3.80695 -13.4359,-11.01292 -15.41958,-18.87952 -1.21334,-4.81169 -1.1417,-10.97008 0.18407,-15.82388 1.18655,-4.34409 4.56566,-9.90651 7.83111,-12.89095 5.45508,-4.98564 11.4371,-7.5051 18.65324,-7.85623 6.77069,-0.32946 12.90412,1.40662 18.16841,5.14258 2.49444,1.77026 6.039,5.42235 7.57595,7.80578 0.72419,1.12304 1.39563,2.01601 1.4921,1.98438 0.39652,-0.13003 12.26534,-10.59777 12.32732,-10.87212 0.18308,-0.81029 -5.52128,-7.25584 -9.0243,-10.19686 -5.53906,-4.65043 -12.20538,-7.91694 -18.91745,-9.26958 -11.36241,-2.2898 -23.08447,-0.60295 -32.41877,4.66518 -9.91253,5.59448 -17.67548,15.00845 -21.01424,25.48357 -2.59422,8.13918 -2.87019,18.26383 -0.72307,26.52766 3.50369,13.48495 14.2155,25.31494 27.60113,30.48233 6.83072,2.63694 15.42861,3.63319 22.90122,2.65362 z m -114.9187,-13.46296 v -13.59518 l 0.59532,-0.15954 c 0.32742,-0.0877 1.07156,-0.16186 1.65364,-0.16471 1.54972,-0.008 6.00305,-0.70185 8.67672,-1.3527 1.2797,-0.31152 2.36883,-0.52201 2.42029,-0.46777 0.0515,0.0543 2.62214,6.67683 5.71262,14.71686 l 5.61906,14.61822 h 8.69555 c 7.2432,0 8.69555,-0.0614 8.69555,-0.36742 0,-0.20208 -3.09744,-8.49495 -6.8832,-18.4286 -3.78577,-9.93364 -6.85163,-18.09022 -6.81303,-18.12572 0.0386,-0.0355 1.0346,-0.77765 2.21332,-1.64921 7.5217,-5.56166 13.24749,-11.91817 16.35841,-18.16033 2.77604,-5.5702 3.76206,-10.06678 3.50883,-16.00139 -0.0845,-1.97979 -0.3492,-4.49258 -0.58826,-5.58399 -1.96365,-8.96472 -6.9331,-17.9123 -15.56904,-28.03233 -2.89156,-3.38847 -9.87968,-10.37899 -13.6638,-13.66849 -8.28597,-7.20291 -12.70019,-11.10642 -21.69031,-19.18082 -5.45703,-4.90118 -11.14227,-9.94437 -12.63386,-11.20708 l -2.71197,-2.29584 v 76.35061 76.35061 h 8.20208 8.20208 z m 0,-66.41644 c 0,-19.73173 0.06,-35.87587 0.13326,-35.87587 0.52773,0 10.09011,8.62539 15.10227,13.62245 6.23355,6.21476 9.43052,9.9336 12.42507,14.45332 3.25504,4.91287 5.79114,10.88451 6.12361,14.41895 0.21411,2.27622 -0.4958,5.24398 -2.01831,8.43757 -2.12344,4.45407 -4.75211,7.55646 -10.57074,12.4757 -6.10088,5.15786 -10.61868,7.02147 -19.80609,8.17008 l -1.38907,0.17366 z m 119.59167,-37.28445 c 0,-0.0669 1.70635,-5.66188 3.79188,-12.43321 l 3.79187,-12.31151 -10.55332,-7.36241 -10.55331,-7.36242 2.99113,-0.16363 c 1.64512,-0.09 5.32352,-0.17929 8.17423,-0.19843 2.85071,-0.0192 7.32082,-0.11225 9.93357,-0.20689 l 4.75046,-0.17207 3.68113,-12.1493 c 2.02462,-6.68212 3.75575,-12.19543 3.84695,-12.25179 0.0912,-0.0564 2.05782,5.36919 4.37027,12.05679 l 4.20445,12.15928 1.32962,-0.008 c 0.73129,-0.004 6.50442,-0.1177 12.82919,-0.25233 6.32477,-0.13464 11.54276,-0.20162 11.59553,-0.14885 0.0528,0.0528 -4.4672,3.51665 -10.04437,7.69751 -5.57718,4.18086 -10.22309,7.67428 -10.32425,7.76315 -0.10117,0.0889 1.69749,5.63848 3.99701,12.33244 2.29952,6.69395 4.15007,12.20884 4.11232,12.25529 -0.0377,0.0464 -4.5153,-3.03808 -9.95014,-6.85452 -5.43483,-3.81643 -10.18555,-7.14989 -10.55716,-7.40767 l -0.67565,-0.46869 -9.6431,7.28385 c -10.69378,8.07747 -11.09831,8.37646 -11.09831,8.20295 z m -355.82016,-0.84038 c 0.51101,-0.87701 7.64316,-24.83224 7.43419,-24.96969 -0.13859,-0.0912 -4.94152,-3.43995 -10.67319,-7.44177 l -10.42122,-7.27604 12.95886,-0.22274 c 7.12738,-0.12251 13.01866,-0.32012 13.09175,-0.43915 0.0731,-0.11902 1.79556,-5.70309 3.8277,-12.40903 2.25068,-7.42708 3.77447,-12.05029 3.89863,-11.82844 0.16617,0.29693 2.60578,7.27951 7.94034,22.72655 l 0.52885,1.53137 1.49369,-0.13574 c 0.82152,-0.0747 6.6729,-0.20787 13.00306,-0.29603 l 11.50937,-0.16029 -10.31875,7.73283 c -5.67531,4.25305 -10.36689,7.77357 -10.42572,7.82337 -0.0588,0.0498 1.76756,5.57805 4.05865,12.28499 2.29109,6.70695 4.12516,12.22582 4.07572,12.26416 -0.0495,0.0383 -4.19756,-2.82781 -9.21803,-6.36922 -5.02046,-3.54141 -9.75405,-6.87124 -10.51908,-7.39962 l -1.39096,-0.96069 -9.92932,7.50801 c -10.83652,8.19398 -11.1505,8.42497 -10.92454,8.03717 z m 297.61183,-48.2779 c 0,-0.15989 1.68625,-5.76409 3.74723,-12.45379 2.06098,-6.68969 3.69809,-12.2031 3.63802,-12.25201 -0.0601,-0.0489 -4.79551,-3.35244 -10.52321,-7.34116 l -10.414,-7.25222 1.55046,-0.16973 c 0.85275,-0.0933 4.52702,-0.1975 8.16504,-0.23146 3.63802,-0.034 8.74027,-0.13617 11.33833,-0.22715 l 4.72375,-0.16541 3.77096,-12.41174 3.77097,-12.41173 0.43185,1.16694 c 0.23751,0.64182 2.15824,6.15622 4.26827,12.25423 2.11003,6.09801 3.87206,11.12294 3.91563,11.1665 0.0436,0.0436 5.834,-0.0397 12.86765,-0.18513 7.03364,-0.14539 12.82849,-0.22428 12.87746,-0.17532 0.049,0.049 -4.49283,3.52323 -10.09286,7.72059 -5.60003,4.19737 -10.24014,7.72586 -10.31136,7.84109 -0.0712,0.11524 1.72995,5.64308 4.0026,12.28409 2.27265,6.64102 4.09001,12.11185 4.03859,12.1574 -0.0514,0.0456 -4.82364,-3.24284 -10.60492,-7.30754 l -10.51142,-7.39038 -7.61254,5.75177 c -4.1869,3.16347 -8.83293,6.69026 -10.32452,7.83732 -1.49159,1.14705 -2.71198,1.95473 -2.71198,1.79484 z m -229.65834,-1.77382 c 0,-0.11495 1.67894,-5.67013 3.73097,-12.34485 2.05204,-6.67472 3.62962,-12.22582 3.50573,-12.33576 -0.12388,-0.10995 -4.91053,-3.46172 -10.63699,-7.44837 l -10.41174,-7.24847 12.98499,-0.23231 12.98499,-0.23232 0.6598,-2.14893 c 0.36288,-1.18192 2.05682,-6.75829 3.7643,-12.39194 1.70748,-5.63366 3.16496,-10.18256 3.23884,-10.10868 0.0739,0.0739 1.99809,5.51668 4.27601,12.09509 l 4.14168,11.96076 12.93435,-0.0833 c 11.2119,-0.0722 12.88151,-0.033 12.53749,0.29434 -0.21828,0.20772 -4.80219,3.68849 -10.18646,7.73506 -5.38427,4.04656 -9.8364,7.39389 -9.89361,7.4385 -0.0572,0.0446 1.7586,5.521 4.03513,12.16974 2.27654,6.64874 4.0894,12.13838 4.02859,12.19919 -0.0608,0.0608 -4.73198,-3.13959 -10.38037,-7.11201 -5.64839,-3.97243 -10.45054,-7.21876 -10.67144,-7.21407 -0.2209,0.005 -4.80695,3.34191 -10.19122,7.41605 -10.47498,7.92616 -10.45104,7.90877 -10.45104,7.59231 z m 70.71092,-45.92588 c 0.12357,-0.33018 8.80884,-28.52846 9.20561,-29.88768 0.20494,-0.70207 -0.0718,-0.91353 -12.98711,-9.92187 l -13.19651,-9.20452 4.28823,-0.17758 c 2.35853,-0.0977 9.61511,-0.26053 16.12574,-0.36191 l 11.8375,-0.18434 0.74459,-2.41621 c 0.40952,-1.32891 2.52222,-8.27591 4.69489,-15.43776 2.17268,-7.16186 4.0296,-12.93639 4.12651,-12.8323 0.0969,0.1041 2.46867,6.82006 5.27058,14.92437 2.80191,8.1043 5.18456,14.881 5.29477,15.05934 0.15799,0.25563 3.57391,0.25919 16.14407,0.0168 8.76902,-0.16909 15.98319,-0.26791 16.0315,-0.2196 0.0684,0.0684 -24.26634,18.52784 -25.40111,19.26835 -0.16831,0.10983 1.70368,5.95086 4.94907,15.44218 2.87088,8.39605 5.18377,15.29341 5.13975,15.32747 -0.044,0.0341 -5.97363,-4.08663 -13.17692,-9.15712 -7.20328,-5.07048 -13.1564,-9.2188 -13.22916,-9.21847 -0.0728,3.2e-4 -5.88191,4.34556 -12.90922,9.65608 -7.02731,5.31052 -12.84434,9.65549 -12.92674,9.65549 -0.0824,0 -0.0941,-0.14882 -0.026,-0.33072 z m 89.23365,-0.90685 c 0.21103,-0.70178 2.3435,-7.63843 4.73882,-15.41476 2.39531,-7.77634 4.31367,-14.20572 4.26301,-14.2875 -0.0507,-0.0818 -5.97992,-4.25636 -13.17614,-9.27683 l -13.08402,-9.12813 5.45219,-0.19714 c 2.99871,-0.10843 10.26339,-0.28702 16.14374,-0.39687 l 10.69154,-0.19974 4.61352,-15.21354 c 2.53744,-8.36745 4.6914,-15.29593 4.78659,-15.39663 0.0952,-0.1007 2.49478,6.54376 5.33243,14.76547 2.83766,8.22171 5.23824,15.0808 5.33462,15.24243 0.12844,0.21537 4.43391,0.21175 16.11892,-0.0136 8.76902,-0.16909 15.99352,-0.25758 16.05446,-0.19665 0.0609,0.0609 -5.64477,4.42352 -12.67934,9.69464 -7.03456,5.27112 -12.8322,9.61843 -12.88363,9.66069 -0.0514,0.0423 2.24201,6.88928 5.09655,15.21559 2.85453,8.32631 5.13654,15.19227 5.07113,15.25769 -0.0654,0.0654 -5.9193,-3.95781 -13.00864,-8.94051 -7.08933,-4.98269 -13.04211,-9.07292 -13.2284,-9.0894 -0.18628,-0.0165 -6.01374,4.25629 -12.94991,9.49504 -6.93617,5.23875 -12.7147,9.56341 -12.84118,9.61034 -0.12647,0.0469 -0.0573,-0.48884 0.15374,-1.19062 z m 359.30554,672.85177 c 3.13944,-2.72933 8.84842,-8.51725 11.97467,-12.14025 22.72257,-26.33304 35.71925,-59.54529 38.18378,-97.57633 0.58991,-9.10305 -0.13374,-30.78907 -1.05938,-31.74726 -0.10995,-0.11381 -1.39082,1.31494 -2.8464,3.175 -14.72889,18.82189 -27.52732,41.4411 -35.15174,62.12517 -6.18524,16.77973 -10.94307,38.52222 -13.60475,62.17134 -0.60106,5.34045 -1.33795,14.10511 -1.33795,15.91382 v 1.18784 l 0.73292,-0.52188 c 0.4031,-0.28704 1.80208,-1.45139 3.10885,-2.58745 z m 0.99244,-201.71441 c 8.16523,-7.88644 15.34057,-16.51246 21.87612,-26.298932 16.40815,-24.569942 26.11903,-53.212512 28.62451,-84.428984 0.61086,-7.6109957 0.2825,-24.500417 -0.53583,-27.560265 -0.16839,-0.629632 -0.30619,-0.525944 -2.57577,1.938147 -13.02208,14.13809232 -25.39095,32.969684 -32.99075,50.228368 -9.6205,21.847587 -15.86228,51.037779 -18.82575,88.040106 -0.0944,1.17827 -0.0616,2.05052 0.077,2.05052 0.13267,0 2.09039,-1.78604 4.35048,-3.96896 z m 0.60498,-202.35623 c 4.86414,-4.440184 11.74926,-12.183232 16.86592,-18.967518 14.18546,-18.808792 24.10574,-39.897892 29.24992,-62.181152 3.92488,-17.00153 4.99024,-35.78379 2.94232,-51.87286 -0.27915,-2.19304 -0.64151,-4.61203 -0.80525,-5.37554 -0.29408,-1.37127 -0.30427,-1.38233 -0.83561,-0.90744 -1.92882,1.72387 -9.71611,12.032 -14.28984,18.9156 -11.82344,17.79466 -20.19058,35.71517 -25.73536,55.11931 -4.7609,16.66096 -8.69998,38.98502 -10.43426,59.134374 -0.29434,3.419739 -0.60292,6.98826 -0.68573,7.930046 l -0.15056,1.712338 0.60869,-0.539016 c 0.33479,-0.296458 1.80618,-1.632123 3.26976,-2.968142 z m -92.93416,-0.380539 c -2.32817,-7.598872 -9.27728,-29.126821 -13.1739,-40.811981 -10.0667,-30.18794 -14.22238,-40.81093 -23.63742,-60.42319 -6.16962,-12.8518 -17.21078,-33.63974 -17.54365,-33.03062 -0.3883,0.71055 -0.85957,12.24493 -0.8563,20.95798 0.005,12.24125 0.35533,15.90474 2.90031,30.29479 2.36526,13.37381 5.01784,21.83095 11.07868,35.32188 8.03041,17.87499 20.28925,33.504216 35.72621,45.548567 2.12295,1.656386 5.88374,4.325387 6.09475,4.325387 0.0441,0 -0.22086,-0.982266 -0.58868,-2.182813 z m 96.08556,-205.316661 c 12.75877,-12.83352 22.49359,-26.39907 30.67805,-42.75011 13.67579,-27.32172 19.36029,-58.91367 15.76826,-87.63314 -0.28278,-2.26097 -0.64956,-4.74222 -0.81505,-5.51389 l -0.30089,-1.40303 -0.76411,0.88368 c -2.64788,3.06224 -7.64941,9.54215 -10.68879,13.84826 -13.01893,18.44488 -22.80761,38.40597 -28.60952,58.34062 -5.12139,17.59643 -9.62988,43.41543 -11.20382,64.16146 -0.15457,2.03729 -0.33658,4.21018 -0.40448,4.82865 -0.0818,0.74504 -0.0203,1.12448 0.1821,1.12448 0.16806,0 2.93927,-2.64914 6.15825,-5.88698 z"
         id="path25" /></g></g></svg>
